<svg width="148" height="142" viewBox="0 0 148 142" fill="none" xmlns="http://www.w3.org/2000/svg">
<path d="M85.6137 86.569C85.8543 86.9404 86.1729 87.2561 86.5468 87.4932C86.1764 87.7301 85.8606 88.0444 85.622 88.4136C85.383 88.0424 85.0687 87.7247 84.6966 87.4851C85.0627 87.2475 85.3763 86.9366 85.6137 86.569Z" fill="white" stroke="white"/>
<path d="M134.602 125.348C135.18 126.664 136.218 127.732 137.531 128.331V128.447C136.22 129.043 135.173 130.102 134.6 131.428C134.006 130.068 132.925 128.977 131.561 128.388C132.922 127.794 134.013 126.713 134.602 125.348Z" fill="white" stroke="white"/>
<path d="M6.4917 121.359C6.72929 121.727 7.04074 122.042 7.40925 122.28C7.04155 122.518 6.72663 122.829 6.4883 123.198C6.25071 122.83 5.93926 122.515 5.57075 122.277C5.93845 122.039 6.25337 121.728 6.4917 121.359Z" fill="white" stroke="white"/>
<path d="M121.623 5.57075C121.86 5.93845 122.172 6.25337 122.54 6.4917C122.172 6.72929 121.857 7.04075 121.619 7.40926C121.382 7.04155 121.07 6.72664 120.702 6.48831C121.069 6.25071 121.384 5.93925 121.623 5.57075Z" fill="white" stroke="white"/>
</svg>
