<svg width="160" height="155" viewBox="0 0 160 155" fill="none" xmlns="http://www.w3.org/2000/svg">
<path d="M88.6421 80.5235L88.5341 80.5276L88.4374 80.5759L88.4366 80.5763C83.4979 82.5398 79.564 86.4775 77.6158 91.4198L77.5846 91.499L77.5813 91.5842L76.761 113.262L75.9406 91.5842L75.9374 91.4992L75.9063 91.4201C73.9555 86.461 70.0134 82.5188 65.0643 80.568L64.9851 80.5367L64.8999 80.5335L43.2225 79.7131L64.8999 78.8928L64.9853 78.8895L65.0648 78.8581C70.0228 76.8975 73.9652 72.9659 75.9163 68.0062L75.9474 67.927L75.9506 67.842L76.771 46.1628L77.5913 67.832L77.5946 67.917L77.6257 67.9962C79.5765 72.9553 83.5188 76.8976 88.4779 78.8484L88.5571 78.8795L88.6421 78.8828L110.319 79.7031L88.6421 80.5235Z" fill="white" stroke="white"/>
<path d="M111.247 110.139C111.488 110.51 111.807 110.826 112.181 111.063C111.81 111.3 111.494 111.614 111.256 111.983C111.017 111.612 110.703 111.294 110.33 111.055C110.697 110.817 111.01 110.506 111.247 110.139Z" fill="white" stroke="white"/>
<path d="M146.471 138.348C147.049 139.664 148.088 140.732 149.4 141.331V141.447C148.089 142.043 147.042 143.102 146.469 144.428C145.875 143.068 144.794 141.977 143.43 141.388C144.791 140.794 145.882 139.713 146.471 138.348Z" fill="white" stroke="white"/>
<path d="M18.3608 134.359C18.5984 134.727 18.9099 135.042 19.2784 135.28C18.9107 135.518 18.5958 135.829 18.3574 136.198C18.1199 135.83 17.8084 135.515 17.4399 135.277C17.8076 135.039 18.1225 134.728 18.3608 134.359Z" fill="white" stroke="white"/>
<path d="M133.492 18.5707C133.729 18.9385 134.041 19.2534 134.409 19.4917C134.042 19.7293 133.727 20.0408 133.488 20.4093C133.251 20.0416 132.939 19.7266 132.571 19.4883C132.938 19.2507 133.253 18.9393 133.492 18.5707Z" fill="white" stroke="white"/>
<path d="M23.7212 18.9604L23.6358 18.9636L23.5564 18.9949C21.4777 19.8158 19.8158 21.4777 18.9949 23.5564L18.9636 23.6358L18.9604 23.7212L18.93 24.5298L18.8996 23.7212L18.8964 23.6358L18.8651 23.5564C18.0446 21.4785 16.3931 19.8158 14.3028 18.9946L14.2237 18.9635L14.1388 18.9604L13.3302 18.93L14.1388 18.8996L14.2242 18.8964L14.3036 18.8651C16.3815 18.0446 18.0442 16.3931 18.8654 14.3028L18.8965 14.2237L18.8996 14.1388L18.93 13.3302L18.9604 14.1388L18.9636 14.2242L18.9949 14.3036C19.8158 16.3823 21.4777 18.0442 23.5564 18.8651L23.6358 18.8964L23.7212 18.8996L24.5298 18.93L23.7212 18.9604Z" fill="white" stroke="white"/>
</svg>
