<svg width="160" height="60" viewBox="0 0 160 60" fill="none" xmlns="http://www.w3.org/2000/svg">
<path d="M15.8121 10.4875C15.7182 10.7695 15.7417 11.1338 15.7417 11.4275C15.5772 11.6391 15.6359 12.0739 15.3422 12.2149C15.0133 13.0374 15.9061 12.9317 15.6124 13.766C15.3422 13.766 15.5067 14.1303 15.448 14.2713C15.2483 14.3418 15.3775 14.7061 15.3422 14.8824C15.1778 14.8824 15.213 15.0586 15.213 15.1644V15.3407C14.9428 15.3759 15.1073 15.7402 15.0486 15.9165C14.9428 15.9165 14.7196 15.9165 14.7784 16.0927V16.3043C14.5434 16.3043 14.7784 16.5863 14.6139 16.7391C14.1792 16.3748 13.6389 16.2338 12.981 16.3043C12.8753 16.128 12.7108 16.0575 12.5111 15.9752L12.6168 15.1879C12.6521 14.8589 13.0162 14.7531 12.7813 14.4358C12.6168 13.7895 11.9825 13.4605 11.7828 12.8847C11.3481 12.3441 11.677 11.122 10.8077 10.8752H10.5728C10.5375 10.4757 10.0324 10.511 9.70344 10.4052H9.50374C9.26878 10.2289 9.13956 9.86465 8.74015 9.97041V9.8999C8.54044 9.79414 8.27025 9.86465 8.10578 9.86465V9.79414C7.16598 9.35935 6.83705 10.0879 6.1322 10.2289C6.06171 10.5932 5.86201 10.4757 5.86201 10.84C5.29813 10.981 4.82823 11.2395 4.59328 11.6978C4.32308 11.7331 4.46405 12.0974 4.46405 12.2736C4.15862 12.2736 4.53454 12.8494 4.15862 12.7437C3.95891 13.6015 3.35979 13.9658 3.18358 14.7179C3.14833 14.6474 3.01911 14.7531 3.01911 14.8236V15.0704C2.98387 14.9999 2.85464 15.1056 2.91338 15.1762V15.3877C2.54921 15.2114 2.74892 15.6697 2.51397 15.752L2.40824 21.4983C1.86785 21.6393 2.00882 22.5441 1.97358 23.1199C1.84436 23.0847 1.73863 23.1904 1.80912 23.2962C1.64465 23.7662 2.17329 23.4725 2.11455 23.872L2.27902 23.6605C2.3495 23.8367 2.47872 24.2363 2.8194 24.1305C2.88989 24.4948 2.71367 25.0236 2.92513 25.2469C2.8194 25.6817 1.89135 25.2469 1.95009 25.8932C1.8796 25.8227 1.71514 25.8932 1.78562 25.9989H1.82086V26.2457H1.78562C2.11455 25.2351 1.08077 25.2704 1.45669 24.342C1.62116 24.483 1.69164 24.2363 1.62116 24.1305L1.6564 23.8837C1.92659 23.8485 1.76213 23.4842 1.82086 23.2374C0.881063 23.0612 1.49193 21.6158 0.787083 21.1927C0.787083 20.7932 0.657861 20.4759 0.352425 20.2996C0.246698 19.7238 0.552133 19.0423 0.28194 18.5017H0.129223C0.0939801 18.2197 0.258445 17.7849 0 17.6086V17.4324C0.164465 17.4676 0.164465 17.2914 0.164465 17.1503V16.9388H0.270193C0.505143 16.222 0.14097 15.1056 0.634365 14.6356C0.634365 14.3066 0.963296 14.2008 0.834073 13.7778C0.963296 13.8483 0.963296 13.672 0.963296 13.6015C0.963296 13.2372 1.32747 13.202 1.23349 12.7437H1.30397C1.46844 12.2736 1.20999 11.5568 1.57417 11.2748C1.70339 11.0633 2.04407 10.8752 1.97358 10.4875C2.33775 10.4169 2.04407 9.84114 2.24377 9.59437C2.64319 9.30059 3.24231 9.19483 3.41853 8.61903C3.74746 8.68953 3.65348 8.337 3.74746 8.14898C3.85318 8.14898 3.91192 8.14898 3.94716 8.07847C4.01765 7.79645 4.34658 7.74944 4.54629 7.57318C5.48609 7.39691 5.94424 6.2453 7.28346 6.71534C7.38918 6.68009 7.35394 6.53908 7.35394 6.50382L7.55365 6.71534C7.62413 6.68009 7.62413 6.53908 7.62413 6.50382C8.29374 6.68009 8.56393 6.2218 9.1983 6.39806C9.26878 6.64484 9.52723 6.46857 9.76218 6.53908C9.8914 6.86811 10.3965 6.8211 10.7607 6.93861C10.7255 7.04437 10.8312 7.11488 10.8899 7.11488H11.0896C11.0544 7.22064 11.1954 7.29115 11.2541 7.25589H11.4891V7.29115C12.5581 7.8317 12.8283 6.68009 13.8621 6.96212V7.06788C14.6256 6.96212 14.8958 7.50267 15.401 7.67894C15.6007 7.96096 15.6712 8.28999 15.6712 8.68953C15.6007 8.68953 15.542 8.76004 15.5067 8.76004C15.5067 9.44161 16.0354 9.80589 15.9061 10.5227H15.8004L15.8121 10.4875ZM15.0133 24.8708C14.9428 25.5877 15.0133 26.234 14.5787 26.563C14.6139 26.8098 14.4494 26.9978 14.5082 27.2093C14.3437 27.2093 14.1792 27.1741 14.1088 27.2798V27.4913C13.9091 27.7381 13.7446 28.2082 13.4744 28.3844L13.4391 28.5959C12.8988 28.4902 12.5698 28.8075 12.2996 29.066V29.2423C11.9707 29.4538 11.9707 29.9238 11.3598 29.8533C10.9252 30.0296 10.3848 30.3234 9.72694 30.3234V30.4291H7.89433C7.89433 30.3586 7.89433 30.2529 7.7651 30.2529C7.72986 30.2529 7.72986 30.3586 7.72986 30.3939C7.72986 30.2529 7.45967 30.2529 7.2952 30.2176C7.18948 30.2176 7.22472 30.3586 7.22472 30.3939H6.3554V30.2881C5.12191 30.2529 4.28784 29.5713 3.54775 28.8897C3.58299 28.784 3.47726 28.6782 3.44202 28.5607H3.20707C3.3128 28.1259 2.87814 28.2434 2.8429 27.8791C2.51397 27.7734 2.47872 27.2328 2.07931 27.1976L2.11455 26.0107H2.41999C2.38474 26.375 2.74892 26.187 2.8194 26.4455C2.85464 25.9754 3.52425 25.9754 3.25406 25.2586C3.45377 25.4349 3.12484 26.1517 3.68872 26.0459H3.85318C4.12338 26.5512 4.65201 26.6923 5.02793 27.0565C5.1924 27.0918 5.29813 27.4561 5.62706 27.3386C5.79152 27.7734 6.42589 27.5853 6.6021 28.1259C6.67259 28.2317 6.83705 28.1612 7.00152 28.1612V28.2317C7.74161 28.5137 8.19976 28.0554 8.93985 28.1259V27.9496C9.50374 27.7381 10.2791 27.7381 10.3143 26.939C10.6432 26.5747 11.3129 26.7628 11.3833 26.1165C11.4891 26.0459 11.6535 26.0459 11.6535 25.9049V25.7287C12.0882 25.4819 11.5478 24.5418 12.0882 24.5066C12.2174 24.3655 12.2174 24.2245 12.2527 24.0365C12.4876 23.7897 12.5816 23.3197 12.9223 23.1082C12.9927 22.8614 13.1572 22.6381 13.3569 22.5324C13.7563 22.3913 14.0265 22.0976 14.5552 22.2386C14.5199 22.4149 14.7196 22.3443 14.8254 22.3443H14.9898C15.354 23.2844 14.9898 23.8132 15.119 24.8591H15.0133V24.8708ZM13.2747 25.5524H13.4744V25.4114C13.4744 25.4114 13.3099 25.5524 13.2747 25.5524Z" fill="white"/>
<path d="M29.122 29.4537C29.075 29.6535 28.8636 29.5595 28.6991 29.63C28.6521 29.63 28.5816 29.63 28.5816 29.677C28.3467 29.9355 27.959 29.959 27.6771 29.9825C27.6771 29.912 27.5831 29.912 27.5126 29.912H27.3716V29.865C26.8313 29.865 26.749 29.63 26.3261 29.4537C26.2556 29.2775 26.0677 29.1717 25.9267 29.0424C25.4333 28.9367 25.1161 29.2187 24.8577 29.4302C24.6462 29.583 24.1646 29.4772 24.0471 29.7122C23.4362 29.9943 22.6022 29.7945 22.1675 30.2175C21.9326 30.2881 21.6741 30.1705 21.5449 30.3468C21.4274 30.1705 21.122 30.2998 20.8988 30.2175C20.8988 30.1705 20.8283 30.1118 20.7813 30.1118H20.6403C20.6403 30.0295 20.5463 30.0295 20.4759 30.0295C20.2879 30.0295 20.2174 29.7005 19.959 29.8298C19.8885 29.6535 19.6535 29.724 19.5126 29.6535C19.5126 29.63 19.5126 29.5242 19.4656 29.5242H19.3246C19.3951 29.1717 19.1366 29.1129 18.9722 28.9602C18.8782 28.4549 18.1381 28.8544 18.0676 28.2669H17.9266C17.8797 27.9848 17.6917 27.8556 17.6917 27.5265C17.7152 26.9625 17.5507 26.5042 17.4802 25.9401H17.4098C17.4802 25.6816 17.1983 25.0941 17.6447 25.0941C17.6917 25.0706 17.6917 25.0118 17.6917 24.9413C18.1381 24.7885 18.3378 24.201 18.5023 23.7192C18.6432 23.6957 18.6667 23.4842 18.6667 23.3666C18.8782 23.2844 18.8782 22.9789 19.0427 22.7791C19.2306 22.7556 19.4186 22.5441 19.4891 22.2973C19.2776 22.0153 19.0897 21.6392 18.655 21.51C18.514 21.4042 18.6315 21.0987 18.3731 21.1574C18.3026 20.9577 18.1851 20.7461 17.9971 20.6521V19.5593C18.0676 19.6063 18.1146 19.5123 18.0911 19.43V19.2772C18.1616 19.101 18.42 18.819 18.608 18.7955C18.796 18.5957 19.0779 18.5369 19.1484 18.2079C19.5713 18.2314 19.959 18.1021 20.0999 17.7731C20.4054 17.5733 20.9575 17.7496 21.2864 17.6203C21.4509 17.4206 21.7798 17.5146 21.9091 17.1855C22.6022 17.7261 23.8356 17.0328 24.47 17.6203H24.8694C24.9164 17.8201 25.1044 17.7261 25.2688 17.7261C25.4333 17.8554 25.5508 18.0081 25.8092 18.0551C25.7857 18.1844 25.8562 18.2549 25.9737 18.2902H26.0442C26.0442 18.2902 26.0442 18.4194 26.0912 18.4194C26.2791 18.5487 26.4906 18.8072 26.5376 18.96C26.7255 19.0657 26.7255 19.2655 26.9135 19.195C26.8195 19.6768 27.3834 19.6768 27.3129 20.1351C27.3834 20.1586 27.4304 20.2878 27.5479 20.2173C27.3834 21.416 27.7123 22.356 27.7358 23.4371H27.6888C27.4539 24.0012 27.8298 24.3302 27.7123 24.8943C27.6888 24.8943 27.6418 24.9413 27.5948 25C27.9003 25.2821 27.2894 26.5629 28.241 26.1517C28.5934 25.7991 29.028 25.5406 29.6624 25.6464C29.8504 25.6699 29.7329 25.9989 29.9678 25.9284C30.1088 26.2104 29.9913 26.798 30.2263 26.9977C30.4377 27.2798 30.3203 27.8908 30.2733 28.2669C29.8269 28.6782 29.5097 29.0307 29.0868 29.489L29.122 29.4537ZM24.3525 24.577C23.7652 24.4242 23.3305 24.9295 22.9076 24.577C22.6022 24.7298 22.2145 24.7533 21.8386 24.7298V24.812C21.7916 24.9413 21.7211 24.8943 21.6506 24.8943C21.4861 25.2233 20.9105 24.7885 20.887 25.2468C20.2174 25.3173 20.1469 26.0576 19.4656 26.0106V26.1399C19.4186 26.2222 19.3011 26.1634 19.2776 26.1634L19.2541 27.0095C19.2541 27.315 19.5596 27.4443 19.724 27.5735L21.169 27.6205C21.1925 27.7968 21.2629 27.9261 21.4274 27.8791C21.4979 27.9848 21.6859 27.9261 21.6154 28.0788C21.7328 28.0788 21.7563 28.0788 21.8268 28.1258C21.8268 27.8438 22.0618 27.9261 22.1088 27.6911C22.5552 27.5148 22.9193 27.2798 23.3657 27.1505C23.8122 27.2798 23.8591 26.798 24.2938 26.798L24.3643 25.9871C24.4113 25.8579 24.6462 25.7051 24.7167 25.5053V25.3291C24.7167 25.3291 24.6932 25.1763 24.7872 25.1763V24.9178C24.8107 24.6828 24.4113 24.7885 24.3408 24.5888L24.3525 24.577ZM25.1396 20.1586C24.8812 19.8296 24.2821 19.7003 23.7182 19.6533V19.6298L23.5772 19.6063V19.6533C22.9546 19.6533 22.5082 19.8883 21.8973 19.8296C21.9443 19.9588 21.8268 20.0058 21.8268 20.0881C21.4744 20.1116 21.4744 20.4171 21.2864 20.6286C21.216 20.9342 21.4979 21.5687 21.0045 21.5217C20.8165 22.0035 20.2879 22.0858 19.8885 22.3325V22.5676H20.0529C20.0529 22.5676 20.0764 22.6498 20.0764 22.6968C20.6756 22.6733 21.122 22.4148 21.8151 22.5206C21.956 22.8496 22.1205 22.3208 22.3085 22.6028C22.379 22.4736 22.4964 22.5206 22.5669 22.3678C23.0603 22.1915 23.5655 22.168 24.0823 22.0623C24.4818 21.9565 24.6697 21.7332 25.0574 21.604C25.1279 21.4512 25.2453 21.2749 25.3158 21.0634C25.3158 20.9812 25.3158 20.9107 25.4098 20.9107C25.4098 20.6286 25.1749 20.4524 25.1514 20.1703L25.1396 20.1586Z" fill="white"/>
<path d="M43.161 20.4994C42.9966 20.4759 43.0435 20.6757 43.0435 20.7579C42.8791 20.9577 42.7616 21.369 42.4209 21.3455C42.327 21.369 42.2565 21.322 42.2095 21.416V21.4982H41.5164C41.5634 21.1927 41.2579 21.4512 41.1639 21.2632H41.023C41.023 21.1927 40.9525 21.1927 40.8585 21.1927H40.741C40.788 20.9929 40.5296 21.0164 40.4826 20.9342C40.1537 20.5464 39.7895 20.1704 39.4841 19.7826H39.1786C39.1786 19.7826 39.1786 19.7121 39.1551 19.6533C39.1081 19.6533 39.0376 19.6533 38.9907 19.7003V19.7708C38.6852 19.8178 38.4503 19.9471 38.2741 20.0999C37.7807 20.2291 37.205 20.3349 37.0406 20.9107C36.6412 21.0635 37.0406 21.5452 36.8291 21.886H36.8056C36.7116 21.9918 36.7586 22.2151 36.7586 22.3678C36.6881 22.3208 36.6412 22.4148 36.6412 22.4383V22.6146C36.5707 22.6146 36.5237 22.6851 36.5472 22.7439C36.7116 23.0964 36.5942 23.6605 36.6177 24.1187C36.5472 24.1187 36.5002 24.1893 36.5472 24.2245C36.4532 24.483 36.2652 24.6123 36.3357 24.9413C36.5707 25.0706 36.5237 25.3291 36.5237 25.5759C36.2182 25.4701 36.3827 25.8109 36.2652 25.9049C36.3357 26.3162 36.8291 26.3632 36.8291 26.8215C36.9701 26.8215 37.0876 26.9508 37.0876 27.1035L38.0156 27.1505C38.0156 27.2563 38.1096 27.2798 38.1801 27.2563H38.321V27.3268C38.6735 27.4561 39.2726 27.2563 39.4841 27.5031C39.719 27.5031 39.719 27.7616 39.8365 27.8909C39.7895 28.1494 39.907 28.3492 39.9305 28.5019L40.0949 28.4197V28.5959C39.7895 28.5959 39.813 29.1365 39.5545 29.207V29.3833C39.2726 29.4068 39.1316 29.489 39.0142 29.6653C37.8746 29.6418 36.6177 29.6418 35.5486 29.818C35.1727 30.0178 34.9848 29.6653 34.5031 29.771V29.6888C34.2917 29.6418 33.8805 29.583 33.6925 29.771H33.5281L33.5516 29.6888C33.2226 29.6418 32.7645 29.6653 32.5765 29.4068H32.3886C32.3886 29.254 32.1536 29.4068 32.0831 29.2775L32.0361 28.2316C32.0361 28.2316 32.0831 28.2081 32.1301 28.1494C32.0596 27.8909 32.4355 28.1259 32.3886 27.8204C32.6705 27.6676 33.2226 27.7968 33.3636 27.5383C33.7865 27.4678 34.2212 27.5618 34.3856 27.1035C34.6911 26.9273 34.5501 26.2575 34.5031 25.8814C34.1272 25.7522 34.5266 25.3174 34.4091 24.9413H34.4796L34.5736 23.1787C34.6911 23.2257 34.6911 23.1081 34.6911 23.0259C34.5031 22.6969 34.6206 22.1798 34.5971 21.7803H34.6676C34.4796 21.0635 35.1375 21.1222 35.067 20.5347C34.879 20.3819 34.8085 20.0294 34.4444 20.0294C34.5149 19.4183 33.9745 19.4183 33.6338 19.1833C33.6338 19.1598 33.5633 19.1128 33.5163 19.1128H33.3519C33.1404 19.0658 33.0934 18.725 32.7292 18.8072C32.5413 18.6075 32.1654 18.4782 32.2828 17.9377C32.7997 17.6321 33.3049 17.1973 33.9862 17.1268V17.1503C34.2917 17.3266 34.8908 17.0446 35.0317 17.4324H35.2432C35.2197 17.5616 35.3137 17.5616 35.3842 17.5616H35.5016C35.5016 17.6909 35.6191 17.6321 35.6896 17.6321C35.9481 17.6791 36.042 18.1962 36.4767 17.9847C36.4767 18.0552 36.4532 18.1374 36.5472 18.1374C36.6177 17.9847 36.8996 17.8789 36.8996 17.6556C37.5927 17.5734 38.3915 17.5734 38.7322 16.8683C38.8027 16.7625 39.1081 16.9741 39.0376 16.6685C39.4136 16.5863 39.8482 16.692 40.2711 16.692V16.7625L41.0817 16.9153C41.0817 16.9976 41.1522 17.0211 41.2462 16.9976H41.3637V17.1268C41.7396 17.1973 42.2212 17.1268 42.1977 17.6321C42.4327 17.7144 42.6911 17.8906 42.7381 18.1727C42.7381 18.2197 42.7381 18.3019 42.8086 18.3019H42.8791C42.8791 18.4312 42.8556 18.5017 42.9261 18.5605H43.0435C43.0435 18.6897 42.9966 18.819 43.067 18.8895H43.161L43.1375 20.4759L43.161 20.4994Z" fill="white"/>
<path d="M57.8912 29.3008C57.8912 29.3008 57.7738 29.3008 57.7738 29.3478V29.524C57.6798 29.524 57.6093 29.477 57.5623 29.5475V29.6533L56.0704 29.6298C55.9764 29.8296 55.7884 29.9353 55.6005 29.9118C55.5065 29.9588 55.436 29.9118 55.389 30.0176V30.0881H54.5549V29.9823C54.1555 29.9118 53.6504 29.9118 53.298 29.7473C53.0865 29.618 52.8516 29.4183 52.6049 29.3125L52.6284 28.725C52.6284 28.725 52.7458 28.6779 52.7458 28.5957C52.6988 28.4664 52.7693 28.4664 52.8633 28.4194C52.9103 28.4194 52.9808 28.4194 53.0278 28.3372C53.0278 28.2079 53.4507 28.2667 53.2862 27.9494C53.6856 27.4088 54.2847 27.2326 54.2378 26.2925C54.3082 26.3395 54.3082 26.269 54.3082 26.1867C54.1438 25.9047 54.2847 25.4464 54.2378 25.1174C54.5197 25.1174 54.3552 24.7648 54.5197 24.6826C54.4727 24.377 54.4022 24.095 54.3317 23.8365C54.4022 23.8365 54.4492 23.7307 54.4492 23.6602V23.484C54.5197 23.531 54.5197 23.4017 54.5197 23.3312L54.5432 23.1549H54.5667C54.6607 23.0257 54.6607 22.7671 54.5667 22.5909C54.4962 22.5909 54.5432 22.4381 54.5432 22.3323H54.5902C54.6607 22.1796 54.6607 21.9211 54.5902 21.6978H54.5432C54.7547 21.1337 54.6372 20.3699 54.2848 20.0409C54.2143 19.6883 54.0968 19.4768 53.8149 19.4063C53.7914 19.3593 53.7914 19.1713 53.6739 19.23H53.5564V19.1243L51.7943 19.0773C51.7943 19.0773 51.7943 19.0303 51.7708 18.995C51.7238 19.1478 51.4888 19.0185 51.3244 19.0773C51.2539 19.277 51.2774 19.4886 51.2774 19.7118C51.2539 19.6648 51.2069 19.7118 51.2069 19.7353C51.1599 20.0409 50.8075 19.8646 50.7605 20.2171C50.5255 20.3699 50.4551 20.6049 50.2436 20.7577C50.1261 20.887 49.8677 20.887 49.8912 21.1455C49.8442 21.1925 49.7032 21.1455 49.7267 21.2747C49.5388 21.3452 49.5388 21.6625 49.4918 21.8623C49.2568 22.0621 49.1393 22.3206 49.1628 22.7554C48.9044 22.7084 49.1393 23.1079 49.0219 23.1902L48.9984 23.3429C48.9279 23.3429 48.9279 23.3899 48.8809 23.3899C49.0924 23.5192 48.9749 23.8247 48.9984 24.0245C48.8809 24.2595 48.7164 24.4123 48.8104 24.7178H48.7634C48.4345 25.3759 49.0689 25.6579 48.8574 26.3277C48.7399 26.3042 48.7869 26.457 48.7869 26.504V26.6803C48.6225 26.9388 49.0454 27.2443 48.9749 27.6203C48.8809 27.5733 48.8809 27.6203 48.8574 27.6439C48.9279 28.1256 49.527 27.8201 49.8324 27.9259C49.9264 28.0786 50.1614 28.1844 50.3023 28.2549V29.0657C50.1379 29.1127 50.2554 29.3713 50.2084 29.5005C49.7385 29.6298 49.2333 29.3948 48.8809 29.6768H48.3875C48.3875 29.6768 48.4345 29.5475 48.364 29.524C48.1526 29.8531 47.5299 29.5475 47.295 29.7591C47.201 29.5828 46.9426 29.712 46.7194 29.6768V29.524L45.5329 29.4535C45.5329 29.4535 45.5329 29.3478 45.5094 29.3478H45.3919C45.3449 29.2185 45.3919 29.0892 45.2979 29.0187L45.2744 28.1491C45.3449 28.1491 45.3919 28.0669 45.3919 27.9964V27.8671C45.3919 27.8671 45.5094 27.8906 45.5564 27.8201V27.6909C45.7443 27.5381 46.1555 27.6909 46.3904 27.5616V27.4911C46.3904 27.4911 46.4609 27.6674 46.5784 27.6203C47.0718 27.0328 46.3669 26.1397 46.8368 25.6344L46.9073 23.8482C46.9073 23.8482 47.0248 23.8012 46.9778 23.7425C46.9073 23.2372 46.7898 22.7789 46.7194 22.2618H46.7663L46.8133 21.0632H46.8838C47.0013 20.8047 46.7663 20.2994 47.0483 20.2171C47.2128 19.9116 47.4242 19.6061 47.2597 19.2183C47.1423 19.089 47.2362 18.76 46.9543 18.76C46.9543 18.6307 46.9543 18.4545 46.7898 18.4545H46.7194C46.6019 18.2782 46.4139 18.1959 46.2495 18.0197H45.9675V17.8904C45.9675 17.8904 46.085 17.9374 46.132 17.8434V17.6906H46.6959C46.6959 17.6906 46.7194 17.8199 46.7663 17.7729H46.9308C46.8838 17.8787 46.9308 17.8787 46.9543 17.9022C47.1893 17.8787 47.1188 17.4439 47.4712 17.6201V17.6671C47.8706 17.8199 48.1173 17.5614 48.4227 17.4909C48.7047 17.7494 48.7752 18.2312 48.7987 18.6895L48.9161 18.5602C48.9161 18.6895 49.0101 18.6895 49.0806 18.6895C49.2686 18.5602 49.6445 18.4897 49.8442 18.337C49.8912 18.337 49.8912 18.29 49.8912 18.2312C49.9147 18.2312 50.0087 18.4662 50.0791 18.2782V18.2312H50.2436C50.2436 18.2312 50.2436 18.337 50.2671 18.337C50.5021 18.1372 50.878 18.0314 51.0072 17.6436C51.1247 17.5731 51.3126 17.4086 51.3596 17.2324C51.6651 17.1031 52.2407 17.3381 52.4286 17.0326C52.5461 17.0326 52.7576 17.0796 52.7576 16.9033H53.4977C53.7091 17.0796 54.085 17.0091 54.2143 17.1853L55.6357 17.2911C55.6357 17.2911 55.6827 17.3616 55.7297 17.3616H55.8472C56.0351 17.7964 56.1761 18.3017 56.5873 18.4897C56.6108 19.0773 56.4933 19.8176 56.6812 20.3817H56.7752L56.7517 21.4275C56.5638 21.5333 56.5403 21.8153 56.5638 22.0621L56.5873 27.0093C56.8927 26.9388 56.6108 27.5146 56.9632 27.3148C57.1746 27.7496 57.6798 27.7496 57.8912 28.1374H58.0087C58.1027 28.4899 58.1497 29.054 57.9147 29.289L57.8912 29.3008Z" fill="white"/>
<path d="M70.991 26.8803C70.8736 27.3621 70.1805 27.3856 70.2509 28.0554C70.2275 28.0554 70.1805 28.0789 70.157 28.0789L70.1335 28.2551C69.875 28.1494 69.9925 28.5372 69.6871 28.4902C69.6636 28.8192 69.3111 28.7252 69.2172 28.9955C68.5711 29.0777 68.3361 29.6535 67.6313 29.6888C67.1379 29.6888 66.8207 29.9473 66.3038 29.9943C66.2568 29.9238 66.1158 29.8885 65.9984 29.8885C65.9984 29.818 65.9279 29.7828 65.8574 29.7828C65.8104 29.8063 65.7164 29.7828 65.7164 29.8063V29.8768H65.5519C65.5284 29.677 65.2935 29.8063 65.1525 29.7475C65.1525 29.5948 64.9176 29.724 64.8236 29.677V29.63C64.6591 29.5478 64.4712 29.6065 64.3772 29.5478C64.3772 29.5008 64.3067 29.4773 64.2127 29.4773C63.7663 29.348 63.5431 28.8662 63.1437 28.6547C62.9792 28.5724 63.0967 28.1729 62.8853 28.1494C62.7678 27.6441 62.4154 27.5383 62.0277 27.3033C61.9807 27.127 61.7927 27.1035 61.6988 26.9743C61.5108 26.892 61.6283 26.516 61.3933 26.516C61.5108 25.8227 60.9469 25.8227 60.9704 25.2116C60.8529 24.7298 61.0409 23.966 60.8294 23.5312C60.712 23.4489 60.8764 23.1199 60.6885 23.0729C60.759 22.9906 60.806 22.7909 60.759 22.6381C60.8294 22.6616 60.8764 22.5911 60.8764 22.5558C60.8294 22.3796 60.9234 22.3796 60.9939 22.3561L61.0644 21.6628C61.2289 21.5922 61.1114 21.2045 61.3463 21.181V20.7697H61.3698L61.4638 19.9236C61.5343 19.9236 61.6518 19.9236 61.6518 19.7943C61.6048 19.5946 61.9807 19.6416 61.9807 19.4418C62.3331 19.289 62.5211 18.9365 62.5446 18.4664C62.5916 18.3137 62.9205 18.4429 62.8265 18.1139C63.038 18.1609 62.7795 17.7849 63.038 17.8319C63.132 17.6791 63.2964 17.6791 63.2259 17.4794C63.6723 17.3266 64.107 17.0681 64.6239 17.0211V16.8918C64.7884 16.8918 64.9763 17.0211 64.9998 16.8213C65.0468 16.9506 65.1878 16.8918 65.3052 16.8918V17.0211C65.5167 17.0916 65.8691 17.0916 66.0923 17.0211H66.0688V16.8918H66.0923C66.1628 17.1973 66.6797 16.9388 66.7854 17.3266L66.8794 17.1973C66.9264 17.3971 67.1379 17.2678 67.2553 17.3266C67.3258 17.1738 67.5843 17.2796 67.7487 17.1973C67.8897 17.3736 68.1951 17.3736 68.1951 17.6556C68.2656 17.9847 68.6415 17.7849 68.618 18.1139C68.806 18.0669 68.853 18.3137 69.041 18.2667C69.2289 18.4429 69.2994 18.7485 69.5578 18.7485C69.6988 18.9482 69.6518 19.2303 69.9103 19.336C69.9573 19.6181 69.9808 19.7708 70.1687 19.8413C70.4037 20.0999 70.6856 20.1704 70.6151 20.6287C70.6386 21.2632 70.6856 21.933 70.9441 22.4148C71.0145 22.7674 70.7796 22.8966 70.7326 23.1787C70.2392 23.9425 68.9705 23.4842 68.2421 23.872C68.2186 23.7192 67.9837 23.825 67.8897 23.7427C67.6078 23.872 67.4198 24.0012 67.0791 23.9777C66.9381 23.9542 66.7502 23.9777 66.5622 23.9542C66.6092 23.8485 66.5152 23.8485 66.4448 23.8485C66.1863 24.0482 65.9279 23.9307 65.5872 23.9307C65.3992 23.4489 64.6121 23.731 64.1892 23.6722C64.1892 23.872 64.0483 23.9542 63.8603 23.9542C63.6958 23.9777 63.5314 23.9542 63.3669 24.0365V24.107C63.1555 24.06 63.0615 24.1892 62.9675 24.342V24.4478C62.9675 24.4478 62.85 24.4478 62.85 24.5183C63.1085 24.718 62.8265 25.4349 63.2494 25.5406C63.2494 26.2574 63.7898 26.4337 63.9895 26.9978C63.7311 27.127 64.107 27.1975 64.013 27.3503L65.5284 27.3268V27.2445C66.1746 26.8568 65.9983 27.5736 66.621 27.5501C66.621 27.5736 66.574 27.6558 66.6445 27.7028C66.8089 27.4678 67.2083 27.5971 67.3376 27.221C67.784 27.1388 67.9837 26.6335 68.4771 26.563C68.618 26.2339 68.994 26.2809 69.1232 25.8697C69.3581 25.7874 69.3581 25.5641 69.4756 25.3644C69.6166 25.5641 69.922 25.4466 70.1452 25.4466C70.1452 25.5171 70.1922 25.5759 70.2627 25.5759H70.3567C70.5211 25.6581 70.6386 25.7756 70.7796 25.9049H70.9206C70.9675 26.1869 71.132 26.3632 71.0615 26.7157C70.991 26.7157 70.991 26.798 70.991 26.8685V26.8803ZM68.4301 20.5464C68.4301 20.5464 68.3126 20.5699 68.3126 20.4994C68.5006 20.0646 68.0072 20.0411 67.9132 19.8413C67.7957 19.8413 67.5608 19.9706 67.5373 19.7708C67.2318 19.6886 67.0439 19.4418 66.9734 19.1128H66.8324L66.7854 19.0305H66.6445C66.6445 19.0305 66.5035 19.0305 66.527 18.9012C66.245 18.9717 65.7399 18.819 65.6224 19.054C64.9763 18.9717 64.6474 19.336 64.154 19.4888C64.013 19.5593 63.8955 19.6416 63.9425 19.8413C63.8251 19.9706 63.7781 20.1704 63.5901 20.0999C63.4491 20.4054 63.2612 20.6874 63.1437 20.9694C63.2142 21.1692 63.2847 21.3572 63.4726 21.3807C63.5431 21.3807 63.5901 21.4865 63.5901 21.51L64.5652 21.557C64.7061 21.6275 64.7766 21.6275 64.8941 21.7568H65.0116C65.082 21.7568 65.1525 21.8038 65.1525 21.886C65.458 22.0153 65.411 21.604 65.6459 21.5805C65.8339 21.4512 66.1158 21.3807 66.48 21.4277C66.621 21.6628 67.0674 21.5805 67.4081 21.6863V21.7098L67.831 21.6863C68.1599 21.6863 68.2304 21.4042 68.5476 21.275C68.618 21.0399 68.5476 20.7109 68.4536 20.5581L68.4301 20.5464Z" fill="white"/>
<path d="M85.8622 20.4994C85.6977 20.4759 85.7447 20.6757 85.7447 20.7579C85.5803 20.9577 85.4628 21.369 85.1221 21.3455C85.0281 21.369 84.9576 21.322 84.9106 21.416V21.4982H84.2175C84.2645 21.1927 83.9591 21.4512 83.8651 21.2632H83.7241C83.7241 21.1927 83.6537 21.1927 83.5597 21.1927H83.4422C83.4892 20.9929 83.2308 21.0164 83.1838 20.9342C82.8548 20.5464 82.4907 20.1704 82.1852 19.7826H81.8798C81.8798 19.7826 81.8798 19.7121 81.8563 19.6533C81.8093 19.6533 81.7388 19.6533 81.6918 19.7003V19.7708C81.3864 19.8178 81.1514 19.9471 80.9752 20.0999C80.4818 20.2291 79.9062 20.3349 79.7417 20.9107C79.3423 21.0635 79.7417 21.5452 79.5303 21.886H79.5068C79.4128 21.9918 79.4598 22.2151 79.4598 22.3678C79.3893 22.3208 79.3423 22.4148 79.3423 22.4383V22.6146C79.2718 22.6146 79.2249 22.6851 79.2483 22.7439C79.4128 23.0964 79.2953 23.6605 79.3188 24.1187C79.2483 24.1187 79.2014 24.1893 79.2483 24.2245C79.1544 24.483 78.9664 24.6123 79.0369 24.9413C79.2718 25.0706 79.2249 25.3291 79.2249 25.5759C78.9194 25.4701 79.0839 25.8109 78.9664 25.9049C79.0369 26.3162 79.5303 26.3632 79.5303 26.8215C79.6713 26.8215 79.7887 26.9508 79.7887 27.1035L80.7168 27.1505C80.7168 27.2563 80.8108 27.2798 80.8813 27.2563H81.0222V27.3268C81.3746 27.4561 81.9738 27.2563 82.1852 27.5031C82.4202 27.5031 82.4202 27.7616 82.5377 27.8909C82.4907 28.1494 82.6081 28.3492 82.6316 28.5019L82.7961 28.4197V28.5959C82.4907 28.5959 82.5142 29.1365 82.2557 29.207V29.3833C81.9738 29.4068 81.8328 29.489 81.7153 29.6653C80.5758 29.6418 79.3188 29.6418 78.2498 29.818C77.8739 30.0178 77.6859 29.6653 77.2043 29.771V29.6888C76.9928 29.6418 76.5817 29.583 76.3937 29.771H76.2292L76.2527 29.6888C75.9238 29.6418 75.4657 29.6653 75.2777 29.4068H75.0897C75.0897 29.254 74.8548 29.4068 74.7843 29.2775L74.7373 28.2316C74.7373 28.2316 74.7843 28.2081 74.8313 28.1494C74.7608 27.8909 75.1367 28.1259 75.0897 27.8204C75.3717 27.6676 75.9238 27.7968 76.0648 27.5383C76.4877 27.4678 76.9223 27.5618 77.0868 27.1035C77.3922 26.9273 77.2513 26.2575 77.2043 25.8814C76.8284 25.7522 77.2278 25.3174 77.1103 24.9413H77.1808L77.2748 23.1787C77.3922 23.2257 77.3922 23.1081 77.3922 23.0259C77.2043 22.6969 77.3218 22.1798 77.2983 21.7803H77.3687C77.1808 21.0635 77.8386 21.1222 77.7682 20.5347C77.5802 20.3819 77.5097 20.0294 77.1455 20.0294C77.216 19.4183 76.6756 19.4183 76.335 19.1833C76.335 19.1598 76.2645 19.1128 76.2175 19.1128H76.053C75.8416 19.0658 75.7946 18.725 75.4304 18.8072C75.2424 18.6075 74.8665 18.4782 74.984 17.9377C75.5009 17.6321 76.006 17.1973 76.6874 17.1268V17.1503C76.9928 17.3266 77.5919 17.0446 77.7329 17.4324H77.9444C77.9209 17.5616 78.0149 17.5616 78.0853 17.5616H78.2028C78.2028 17.6909 78.3203 17.6321 78.3908 17.6321C78.6492 17.6791 78.7432 18.1962 79.1779 17.9847C79.1779 18.0552 79.1544 18.1374 79.2483 18.1374C79.3188 17.9847 79.6008 17.8789 79.6008 17.6556C80.2939 17.5734 81.0927 17.5734 81.4334 16.8683C81.5039 16.7625 81.8093 16.9741 81.7388 16.6685C82.1147 16.5863 82.5494 16.692 82.9723 16.692V16.7625L83.7829 16.9153C83.7829 16.9976 83.8534 17.0211 83.9474 16.9976H84.0648V17.1268C84.4407 17.1973 84.9224 17.1268 84.8989 17.6321C85.1338 17.7144 85.3923 17.8906 85.4393 18.1727C85.4393 18.2197 85.4393 18.3019 85.5098 18.3019H85.5803C85.5803 18.4312 85.5568 18.5017 85.6272 18.5605H85.7447C85.7447 18.6897 85.6977 18.819 85.7682 18.8895H85.8622L85.8387 20.4759L85.8622 20.4994Z" fill="white"/>
<path d="M98.3274 12.673C105.893 6.42136 114.457 2.35547 121.071 2.35547C126.686 2.35547 131.044 4.41192 134.028 8.14878L133.605 8.47781C130.668 5.35201 126.345 4.82321 123.021 4.82321C115.455 4.82321 107.009 8.06652 99.6666 13.331C101.464 14.4004 102.568 16.0455 102.568 18.102C102.568 22.2149 98.4801 25.1762 94.58 25.1762C94.0396 25.1762 93.5109 25.1409 92.9705 25.0116L93.088 24.5651C93.5462 24.6474 94.0043 24.6944 94.4977 24.6944C98.0925 24.6944 101.487 22.0621 101.487 18.572C101.487 16.4803 100.489 14.8704 98.9618 13.8481C93.5344 17.8787 88.8354 23.014 85.6283 28.725C88.0718 30.5699 91.5138 30.9812 93.8868 30.9812C99.4669 30.9812 104.283 27.2444 107.455 22.0621C111.931 14.7412 115.291 7.67873 123.89 5.8338L124.007 6.40961C116.207 7.97251 114.715 17.3382 109.828 24.001C106.433 28.6427 99.9721 31.6393 93.8516 31.6393C91.2906 31.6393 87.8134 31.1457 85.2172 29.5006C82.7737 34.107 81.317 39.113 81.317 44.2482C81.317 51.7337 85.6753 58.4671 95.6137 58.4671C104.671 58.4671 115.068 50.7819 115.068 40.1001C115.068 36.4455 113.235 33.0377 108.301 33.0377C105.822 33.0377 103.214 34.06 100.548 35.7522L100.277 35.2586C102.721 33.6957 105.517 32.4266 108.301 32.4266C113.611 32.4266 116.595 35.6699 116.595 39.9943C116.595 50.9699 104.976 59.0664 95.5785 59.0664C85.0645 59.0664 80.6709 52.0745 80.6709 44.1895C80.6709 39.0542 82.1981 33.9543 84.6885 29.1833C82.7737 27.7849 81.4345 25.6932 81.4345 22.6027C81.4345 16.7271 87.8134 11.9209 93.8986 11.9209C95.508 11.9209 97.0352 12.2029 98.3274 12.6965V12.673ZM97.7518 13.1665C96.6005 12.673 95.2613 12.4262 93.8868 12.4262C87.9661 12.4262 82.7267 17.0679 82.7267 22.1679C82.7267 25.0469 83.6783 26.9741 85.135 28.2902C88.2715 22.6144 92.7356 17.3969 97.7518 13.1665Z" fill="white"/>
<path d="M130.468 23.1784L130.868 23.4722C128.988 25.8812 125.852 29.6885 122.398 29.6885C121.059 29.6885 120.471 29.0657 120.471 28.1491C120.471 27.7143 120.6 27.1855 120.918 26.6097V26.5627C119.355 28.4429 117.734 29.6885 115.584 29.6885C113.434 29.6885 113.07 28.3371 113.07 27.4206C113.07 23.907 117.241 19.5708 121.634 19.5708C123.02 19.5708 123.878 20.1936 124.277 20.8282L124.371 20.6872C124.736 20.1584 124.994 19.8646 125.711 19.8646H127.684C127.954 19.8646 128.037 20.0056 128.037 20.1584C128.037 20.2054 128.037 20.2994 127.907 20.5461C126.838 22.3793 123.737 26.8095 123.737 28.0081C123.737 28.3959 123.913 28.5839 124.23 28.5839C125.264 28.5839 127.543 26.9505 130.457 23.1901L130.468 23.1784ZM116.348 27.8553C116.348 28.2901 116.618 28.6309 117.064 28.6309C119.308 28.6309 123.244 23.0961 123.244 21.216C123.244 20.3464 122.656 20.2054 122.163 20.2054C119.837 20.2054 116.336 25.5521 116.336 27.8671L116.348 27.8553Z" fill="white"/>
<path d="M132.748 27.2326C132.748 28.49 133.558 28.584 133.864 28.584C134.933 28.584 137.271 26.7978 140.137 23.1902L140.536 23.484C138.657 25.893 135.426 29.7004 132.019 29.7004C129.693 29.7004 129.282 28.255 129.282 27.2444C129.282 22.5674 140.76 0.933594 151.649 0.933594C154.199 0.933594 155.373 1.80318 155.373 3.10755C155.373 3.54234 155.279 4.07115 155.056 4.59995H154.516C154.246 2.48474 153.036 1.56815 151.109 1.56815C146.093 1.56815 139.232 12.5085 135.379 20.0174C133.359 23.9658 132.736 26.0928 132.736 27.2444L132.748 27.2326Z" fill="white"/>
<path d="M150.581 23.1784L150.98 23.4722C149.101 25.8812 145.694 29.6885 141.3 29.6885C139.056 29.6885 138.34 28.5839 138.34 27.4676C138.34 23.8012 142.334 19.5708 146.457 19.5708C149.007 19.5708 149.418 20.7224 149.418 21.451C149.418 24.2477 145.471 25.9282 142.029 25.9282C141.852 26.3159 141.629 27.1855 141.629 27.6673C141.629 28.3841 141.805 28.8189 142.663 28.8189C144.637 28.8189 147.679 26.9388 150.592 23.1784H150.581ZM146.904 20.7694C146.904 20.4756 146.775 20.2876 146.41 20.2876C145.424 20.2876 143.45 22.5556 142.193 25.3994C145.012 25.1056 146.892 22.2736 146.892 20.7694H146.904Z" fill="white"/>
<path d="M154.479 26.8448C151.119 26.8448 148.206 28.631 148.206 30.4054C148.206 31.275 149.052 31.51 150.003 31.51C152.823 31.51 158.52 29.054 158.52 26.1162C158.52 24.142 155.208 23.3665 155.208 22.0151C155.208 21.0985 156.371 19.9469 157.181 19.9469C157.628 19.9469 157.804 20.2407 157.804 20.7225C157.804 21.1572 157.581 21.9211 157.44 22.2619L157.804 22.6026C159.014 22.3089 160.001 21.2042 160.001 20.3817C160.001 19.8059 159.554 19.4181 158.473 19.3711C155.466 19.1831 152.788 20.7695 152.788 22.9904C152.788 24.8236 155.337 25.2584 155.337 26.8918C155.02 26.8918 154.749 26.8448 154.491 26.8448H154.479ZM150.309 30.9929C149.545 30.9929 149.228 30.6992 149.228 30.2174C149.228 28.4312 152.012 27.3266 154.467 27.3266C154.738 27.3266 155.008 27.3736 155.278 27.3736C154.879 29.3948 152.318 30.9929 150.309 30.9929Z" fill="white"/>
<path d="M126.603 41.3222L126.58 41.7687C126.521 41.7687 126.521 41.8392 126.544 41.8745V41.9685C126.486 42.0037 126.462 42.1447 126.356 42.1095C126.262 42.2505 126.004 42.1917 125.898 42.3562C125.393 42.462 124.735 42.3445 124.207 42.4503C124.23 42.415 124.171 42.3798 124.16 42.3798H124.077C124.066 42.2857 123.96 42.3563 123.901 42.3328C123.901 42.321 123.878 42.2975 123.854 42.2622C123.76 42.2622 123.748 42.368 123.619 42.3328V42.3092C123.196 42.2387 122.679 42.321 122.28 42.2152V42.1917C121.528 42.086 121.046 42.4855 120.271 42.4033C120.248 42.2975 120.118 42.368 120.071 42.3328C120.048 42.3563 120.024 42.3798 120.024 42.4033H119.966V42.368C119.895 42.3327 119.813 42.368 119.731 42.3445C119.66 42.321 119.613 42.2035 119.496 42.2387C119.331 42.133 119.39 41.7452 119.39 41.7452C119.39 41.7452 119.414 41.4632 119.625 41.1811C119.825 41.1929 119.907 41.1224 119.907 41.1224V41.0519C120.248 40.9461 120.682 41.0754 120.999 40.9579C120.988 40.8874 121.082 40.8874 121.093 40.8639C121.093 40.7816 121.14 40.6406 121.058 40.6171C121.117 40.5818 121.058 40.4761 121.164 40.4408C121.164 40.3351 121.14 40.2058 121.176 40.1235H121.199C121.223 39.9943 121.164 39.818 121.246 39.7357H121.223C121.223 39.7357 121.199 39.6652 121.199 39.63C121.223 39.6065 121.246 39.6065 121.246 39.6065C121.211 39.4302 121.305 39.3362 121.411 39.2892C121.446 39.2657 121.387 39.1247 121.493 39.1599V39.0894C121.493 39.0894 121.493 39.0072 121.54 39.0072C121.587 38.7369 121.469 38.6311 121.493 38.3844C121.469 38.3961 121.434 38.3961 121.434 38.3609C121.293 38.0436 121.704 38.0788 121.575 37.7381H121.469C121.364 37.6323 121.328 37.503 121.281 37.3503C121.258 37.1387 121.293 36.9625 121.458 36.8685C121.446 36.657 121.387 36.4454 121.352 36.2339C121.352 36.2104 121.375 36.1987 121.399 36.1987C121.375 35.9989 121.246 35.8461 121.305 35.5876C121.434 35.5053 121.469 35.3408 121.552 35.2468V35.1646C121.552 35.1646 121.563 35.0941 121.61 35.0941V34.8473C121.458 34.8943 121.481 34.7298 121.411 34.7298C121.387 34.7533 121.352 34.718 121.375 34.6945H121.293C121.234 34.6123 121.07 34.7298 121.07 34.5888C120.976 34.5653 120.835 34.624 120.8 34.5182V34.5535C120.8 34.5535 120.741 34.5653 120.706 34.5653V34.6123C120.588 34.6475 120.424 34.6475 120.295 34.6005C120.283 34.5182 120.036 34.6005 120.06 34.53C119.801 34.6005 119.672 34.389 119.508 34.2597L119.555 33.8367C119.555 34.0247 119.766 33.7662 119.883 33.8367C119.942 33.7544 120.142 33.8249 120.154 33.6957C120.212 33.6252 120.377 33.7427 120.424 33.6369C120.6 33.7192 120.976 33.7192 121.164 33.6017V33.5664H121.622V33.6017C121.681 33.6722 121.763 33.6252 121.845 33.6487C121.822 33.6839 121.857 33.6839 121.892 33.6839C121.939 33.6839 121.975 33.7074 121.998 33.6722L122.256 33.6487V33.6722C122.515 33.7544 122.938 33.7662 123.091 33.5664H123.549C123.549 33.5664 123.549 33.6487 123.549 33.6604L123.631 33.5782C123.596 33.6604 123.69 33.6604 123.76 33.6604C123.772 33.6487 123.831 33.6839 123.854 33.6252H123.819V33.5899H123.854C123.854 33.5899 123.831 33.6604 123.854 33.6839C123.878 33.6839 123.913 33.6839 123.913 33.6369H123.901V33.6017H123.913C123.913 33.6017 123.936 33.6957 123.972 33.6957C124.113 33.7662 124.254 33.9072 124.324 34.0835C124.324 34.1892 124.395 34.2832 124.43 34.389C124.43 34.577 124.171 34.53 124.136 34.671C123.995 34.671 123.972 34.7885 123.819 34.7533V34.7298C123.678 34.718 123.56 34.6475 123.419 34.6593C123.455 34.5888 123.372 34.577 123.337 34.5888H123.267C123.232 34.483 123.067 34.5653 123.008 34.4947C122.891 34.53 122.703 34.4595 122.668 34.624C122.609 34.6593 122.609 34.8003 122.632 34.8708C122.538 34.8943 122.585 35 122.574 35.0823H122.55C122.468 35.2821 122.585 35.4231 122.55 35.6229C122.503 35.6934 122.527 35.7991 122.527 35.8696C122.433 35.8931 122.503 36.0459 122.444 36.1047C122.421 36.1047 122.386 36.0811 122.386 36.1282C122.386 36.1399 122.386 36.2104 122.409 36.2339H122.444C122.48 36.3749 122.48 36.6335 122.35 36.657C122.303 37.3503 122.292 38.0788 122.327 38.7604C122.386 38.7722 122.303 38.9719 122.421 38.9367C122.397 39.0424 122.433 39.1482 122.491 39.2187C122.209 39.7475 122.691 40.053 122.515 40.6523C122.644 40.8404 122.809 40.8521 122.903 41.0284C122.938 41.1224 123.079 41.0284 123.079 41.1459L123.983 41.1929C123.983 41.1929 124.007 41.2399 124.042 41.2281C124.218 41.1576 124.465 41.1576 124.676 41.1459V41.0754C125.005 41.0401 124.994 40.6288 125.252 40.4996C125.287 40.4996 125.311 40.4643 125.299 40.4056V40.3233C125.393 40.2528 125.311 40.053 125.37 39.9355C125.475 39.9003 125.475 39.7005 125.475 39.5242H125.487C125.534 39.2775 125.499 38.9719 125.722 38.8427C125.863 38.7722 126.051 38.7369 126.239 38.7722C126.627 39.0424 126.427 39.724 126.58 40.147C126.58 40.4643 126.674 40.8991 126.591 41.2634H126.568L126.603 41.3222Z" fill="white"/>
<path d="M133.992 41.3222L133.968 41.7687C133.909 41.7687 133.909 41.8392 133.933 41.8745V41.9685C133.874 42.0037 133.851 42.1447 133.745 42.1095C133.651 42.2505 133.393 42.1917 133.287 42.3562C132.782 42.462 132.124 42.3445 131.595 42.4503C131.619 42.415 131.56 42.3798 131.548 42.3798H131.466C131.454 42.2857 131.349 42.3563 131.29 42.3328C131.29 42.321 131.266 42.2975 131.243 42.2622C131.149 42.2622 131.137 42.368 131.008 42.3328V42.3092C130.585 42.2387 130.068 42.321 129.669 42.2152V42.1917C128.917 42.086 128.435 42.4855 127.66 42.4033C127.636 42.2975 127.507 42.368 127.46 42.3328C127.437 42.3563 127.413 42.3798 127.413 42.4033H127.354V42.368C127.284 42.3327 127.202 42.368 127.119 42.3445C127.049 42.321 127.002 42.2035 126.884 42.2387C126.72 42.133 126.779 41.7452 126.779 41.7452C126.779 41.7452 126.802 41.4632 127.014 41.1811C127.213 41.1929 127.296 41.1224 127.296 41.1224V41.0519C127.636 40.9461 128.071 41.0754 128.388 40.9579C128.376 40.8874 128.47 40.8874 128.482 40.8639C128.482 40.7816 128.529 40.6406 128.447 40.6171C128.506 40.5818 128.447 40.4761 128.553 40.4408C128.553 40.3351 128.529 40.2058 128.564 40.1235H128.588C128.611 39.9943 128.553 39.818 128.635 39.7357H128.611C128.611 39.7357 128.588 39.6652 128.588 39.63C128.611 39.6065 128.635 39.6065 128.635 39.6065C128.6 39.4302 128.694 39.3362 128.799 39.2892C128.835 39.2657 128.776 39.1247 128.882 39.1599V39.0894C128.882 39.0894 128.882 39.0072 128.929 39.0072C128.976 38.7369 128.858 38.6311 128.882 38.3844C128.858 38.3961 128.823 38.3961 128.823 38.3609C128.682 38.0436 129.093 38.0788 128.964 37.7381H128.858C128.752 37.6323 128.717 37.503 128.67 37.3503C128.647 37.1387 128.682 36.9625 128.846 36.8685C128.835 36.657 128.776 36.4454 128.741 36.2339C128.741 36.2104 128.764 36.1987 128.788 36.1987C128.764 35.9989 128.635 35.8461 128.694 35.5876C128.823 35.5053 128.858 35.3408 128.94 35.2468V35.1646C128.94 35.1646 128.952 35.0941 128.999 35.0941V34.8473C128.846 34.8943 128.87 34.7298 128.799 34.7298C128.776 34.7533 128.741 34.718 128.764 34.6945H128.682C128.623 34.6123 128.459 34.7298 128.459 34.5888C128.365 34.5653 128.224 34.624 128.188 34.5182V34.5535C128.188 34.5535 128.13 34.5653 128.094 34.5653V34.6123C127.977 34.6475 127.813 34.6475 127.683 34.6005C127.672 34.5182 127.425 34.6005 127.448 34.53C127.19 34.6005 127.061 34.389 126.896 34.2597L126.943 33.8367C126.943 34.0247 127.155 33.7662 127.272 33.8367C127.331 33.7544 127.531 33.8249 127.542 33.6957C127.601 33.6252 127.766 33.7427 127.813 33.6369C127.989 33.7192 128.365 33.7192 128.553 33.6017V33.5664H129.011V33.6017C129.07 33.6722 129.152 33.6252 129.234 33.6487C129.21 33.6839 129.246 33.6839 129.281 33.6839C129.328 33.6839 129.363 33.7074 129.387 33.6722L129.645 33.6487V33.6722C129.904 33.7544 130.326 33.7662 130.479 33.5664H130.937C130.937 33.5664 130.937 33.6487 130.937 33.6604L131.02 33.5782C130.984 33.6604 131.078 33.6604 131.149 33.6604C131.161 33.6487 131.219 33.6839 131.243 33.6252H131.208V33.5899H131.243C131.243 33.5899 131.219 33.6604 131.243 33.6839C131.266 33.6839 131.302 33.6839 131.302 33.6369H131.29V33.6017H131.302C131.302 33.6017 131.325 33.6957 131.36 33.6957C131.501 33.7662 131.642 33.9072 131.713 34.0835C131.713 34.1892 131.783 34.2832 131.818 34.389C131.818 34.577 131.56 34.53 131.525 34.671C131.384 34.671 131.36 34.7885 131.208 34.7533V34.7298C131.067 34.718 130.949 34.6475 130.808 34.6593C130.843 34.5888 130.761 34.577 130.726 34.5888H130.655C130.62 34.483 130.456 34.5653 130.397 34.4947C130.28 34.53 130.092 34.4595 130.056 34.624C129.998 34.6593 129.998 34.8003 130.021 34.8708C129.927 34.8943 129.974 35 129.962 35.0823H129.939C129.857 35.2821 129.974 35.4231 129.939 35.6229C129.892 35.6934 129.915 35.7991 129.915 35.8696C129.821 35.8931 129.892 36.0459 129.833 36.1047C129.81 36.1047 129.774 36.0811 129.774 36.1282C129.774 36.1399 129.774 36.2104 129.798 36.2339H129.833C129.868 36.3749 129.868 36.6335 129.739 36.657C129.692 37.3503 129.68 38.0788 129.716 38.7604C129.774 38.7722 129.692 38.9719 129.81 38.9367C129.786 39.0424 129.821 39.1482 129.88 39.2187C129.598 39.7475 130.08 40.053 129.904 40.6523C130.033 40.8404 130.197 40.8521 130.291 41.0284C130.327 41.1224 130.467 41.0284 130.467 41.1459L131.372 41.1929C131.372 41.1929 131.396 41.2399 131.431 41.2281C131.607 41.1576 131.854 41.1576 132.065 41.1459V41.0754C132.394 41.0401 132.382 40.6288 132.641 40.4996C132.676 40.4996 132.699 40.4643 132.688 40.4056V40.3233C132.782 40.2528 132.699 40.053 132.758 39.9355C132.864 39.9003 132.864 39.7005 132.864 39.5242H132.876C132.923 39.2775 132.887 38.9719 133.111 38.8427C133.252 38.7722 133.44 38.7369 133.628 38.7722C134.015 39.0424 133.816 39.724 133.968 40.147C133.968 40.4643 134.062 40.8991 133.98 41.2634H133.956L133.992 41.3222Z" fill="white"/>
<path d="M140.793 35.1881C140.758 35.2939 140.77 35.4232 140.77 35.5289C140.711 35.6112 140.735 35.7639 140.617 35.8227C140.5 36.1282 140.829 36.093 140.711 36.3867C140.617 36.3867 140.676 36.516 140.653 36.5748C140.582 36.5983 140.629 36.7275 140.617 36.798C140.559 36.798 140.57 36.8685 140.57 36.9038V36.9743C140.476 36.9861 140.535 37.1153 140.512 37.1858C140.476 37.1858 140.394 37.1858 140.418 37.2563V37.3386C140.335 37.3386 140.418 37.4443 140.359 37.5031C140.194 37.3738 140.006 37.3151 139.76 37.3386C139.724 37.2681 139.666 37.2446 139.583 37.2211L139.619 36.9273C139.619 36.8098 139.76 36.7628 139.677 36.6453C139.619 36.4102 139.384 36.2927 139.313 36.0812C139.149 35.8814 139.278 35.4349 138.961 35.3409H138.879C138.867 35.1999 138.679 35.2116 138.561 35.1646H138.491C138.409 35.0941 138.35 34.9649 138.209 35.0119V34.9884C138.139 34.9531 138.033 34.9766 137.974 34.9766V34.9531C137.633 34.7886 137.504 35.0589 137.246 35.1176C137.222 35.2469 137.152 35.2116 137.152 35.3409C136.94 35.3879 136.776 35.4819 136.682 35.6582C136.588 35.6699 136.635 35.7992 136.635 35.8697C136.529 35.8697 136.658 36.0812 136.529 36.046C136.459 36.3632 136.235 36.4925 136.177 36.7745C136.165 36.751 136.118 36.7863 136.118 36.8098V36.9038C136.118 36.9038 136.059 36.9155 136.083 36.939V37.0213C135.942 36.9508 136.024 37.1271 135.93 37.1506L135.895 39.2658C135.695 39.3128 135.742 39.6536 135.73 39.8651C135.683 39.8533 135.648 39.8886 135.672 39.9356C135.613 40.1119 135.813 40.0061 135.777 40.1471L135.836 40.0648C135.86 40.1354 135.907 40.2764 136.036 40.2411C136.059 40.3704 136 40.5701 136.071 40.6524C136.036 40.8169 135.683 40.6524 135.719 40.8874C135.695 40.8639 135.636 40.8874 135.66 40.9227V41.0167C135.777 40.6407 135.401 40.6642 135.531 40.3116C135.589 40.3704 135.613 40.2764 135.589 40.2294V40.1354C135.695 40.1236 135.636 39.9943 135.66 39.9003C135.319 39.8298 135.542 39.301 135.284 39.1483C135.284 39.0072 135.237 38.878 135.119 38.8192C135.084 38.6077 135.19 38.3492 135.096 38.1612H135.049C135.037 38.0554 135.096 37.8909 135.002 37.8321V37.7616C135.061 37.7734 135.061 37.7146 135.061 37.6559V37.5736H135.096C135.178 37.3033 135.049 36.892 135.237 36.7275C135.237 36.61 135.354 36.5748 135.307 36.4102C135.354 36.4337 135.354 36.375 135.354 36.3397C135.354 36.2105 135.495 36.1987 135.448 36.0225H135.472C135.531 35.8462 135.437 35.5877 135.566 35.4819C135.613 35.3996 135.742 35.3409 135.719 35.1881C135.86 35.1646 135.742 34.9531 135.813 34.8591C135.965 34.7533 136.177 34.7181 136.247 34.5066C136.365 34.5301 136.329 34.4008 136.365 34.3303C136.4 34.3303 136.423 34.3303 136.435 34.3068C136.459 34.201 136.588 34.1893 136.658 34.1188C136.999 34.0483 137.175 33.6252 137.669 33.8015C137.704 33.7897 137.692 33.731 137.692 33.7192L137.763 33.8015C137.763 33.8015 137.786 33.731 137.786 33.7192C138.033 33.7897 138.127 33.6135 138.362 33.684C138.385 33.778 138.479 33.7075 138.573 33.7427C138.62 33.8603 138.808 33.8485 138.937 33.8838C138.937 33.919 138.961 33.9543 138.984 33.9543H139.055C139.055 33.9543 139.09 34.0248 139.114 34.013H139.196C139.595 34.2245 139.689 33.8015 140.077 33.9073V33.9425C140.359 33.9073 140.453 34.0953 140.641 34.1658C140.711 34.2715 140.735 34.3891 140.735 34.5418C140.711 34.5418 140.688 34.5653 140.676 34.5653C140.676 34.8121 140.876 34.9531 140.817 35.2116H140.782L140.793 35.1881ZM140.5 40.4879C140.476 40.7582 140.5 40.9932 140.335 41.1107C140.347 41.2047 140.288 41.2635 140.312 41.3457C140.253 41.3457 140.183 41.334 140.159 41.3692V41.4515C140.089 41.5455 140.018 41.7218 139.924 41.7805V41.8628C139.713 41.8275 139.595 41.945 139.49 42.039V42.1095C139.372 42.1918 139.372 42.3563 139.149 42.3328C138.984 42.4033 138.796 42.5091 138.55 42.5091V42.5443H137.868C137.868 42.5443 137.868 42.4738 137.821 42.4738C137.81 42.4738 137.81 42.5091 137.81 42.5208C137.81 42.4738 137.716 42.4738 137.645 42.4503C137.61 42.4503 137.622 42.4973 137.622 42.5208H137.304V42.4856C136.846 42.4738 136.541 42.2153 136.271 41.9685C136.271 41.9333 136.247 41.8863 136.235 41.851H136.153C136.188 41.6983 136.036 41.7335 136.012 41.6042C135.895 41.569 135.871 41.3692 135.73 41.3575V40.9227H135.86C135.848 41.0519 135.977 40.9932 136 41.0754C136.012 40.8992 136.259 40.8992 136.165 40.6407C136.235 40.7112 136.118 40.9697 136.329 40.9344H136.388C136.482 41.1224 136.682 41.1695 136.823 41.3105C136.882 41.3222 136.917 41.4515 137.046 41.4162C137.105 41.569 137.34 41.5102 137.398 41.71C137.422 41.7453 137.481 41.7218 137.551 41.7218V41.7453C137.821 41.851 137.998 41.6747 138.268 41.71V41.6395C138.479 41.5572 138.761 41.5572 138.773 41.2635C138.89 41.1342 139.137 41.193 139.161 40.9579C139.196 40.9344 139.255 40.9344 139.255 40.8757V40.8052C139.419 40.7112 139.219 40.3704 139.419 40.3586C139.466 40.2999 139.466 40.2529 139.478 40.1824C139.56 40.0883 139.595 39.9121 139.724 39.8416C139.748 39.7476 139.807 39.6653 139.889 39.6301C140.042 39.5713 140.136 39.4655 140.335 39.5243C140.335 39.5948 140.394 39.5595 140.429 39.5595H140.488C140.629 39.9003 140.488 40.1001 140.535 40.4879H140.5ZM139.854 40.7347H139.924V40.6877C139.924 40.6877 139.865 40.7347 139.854 40.7347Z" fill="white"/>
</svg>
