<svg width="160" height="155" viewBox="0 0 160 155" fill="none" xmlns="http://www.w3.org/2000/svg">
<path d="M71.1877 73.7462L36.3077 75.0662L71.1877 76.3862C76.0177 78.2862 79.8577 82.1262 81.7577 86.9562L83.0777 121.826L84.3977 86.9462C86.2977 82.1162 90.1377 78.2862 94.9677 76.3762L129.848 75.0562L94.9677 73.7362C90.1477 71.8362 86.3077 67.9962 84.4077 63.1662L83.0877 28.2862L81.7677 63.1662C79.8677 67.9862 76.0277 71.8262 71.2077 73.7362L71.1877 73.7462Z" fill="#1F1244"/>
<path d="M46.9498 43.5392L42.1198 43.7192L46.9498 43.8992C47.6298 44.1592 48.1698 44.6992 48.4298 45.3792L48.6098 50.1992L48.7898 45.3692C49.0498 44.6892 49.5898 44.1592 50.2698 43.8892L55.0898 43.7092L50.2598 43.5292C49.5798 43.2692 49.0498 42.7292 48.7798 42.0492L48.5998 37.2192L48.4198 42.0392C48.1598 42.7192 47.6198 43.2592 46.9398 43.5192L46.9498 43.5392Z" fill="#1F1244"/>
<path d="M9.95171 13.0117L0.00171778 13.3917L9.95171 13.7717C11.3517 14.3117 12.4517 15.4217 13.0017 16.8117L13.3817 26.7617L13.7617 16.8117C14.3017 15.4117 15.4117 14.3117 16.8117 13.7617L26.7617 13.3817L16.8117 13.0017C15.4117 12.4617 14.3117 11.3517 13.7617 9.95172L13.3817 0.00172307L13.0017 9.95172C12.4617 11.3517 11.3517 12.4517 9.95171 12.9917L9.95171 13.0117Z" fill="#1F1244"/>
<path d="M139.83 19.3105L135 19.4905L139.83 19.6705C140.51 19.9305 141.04 20.4705 141.31 21.1505L141.49 25.9805L141.67 21.1505C141.93 20.4705 142.47 19.9405 143.15 19.6705L147.98 19.4905L143.15 19.3105C142.47 19.0505 141.94 18.5105 141.67 17.8305L141.49 13.0005L141.31 17.8305C141.05 18.5105 140.51 19.0405 139.83 19.3105Z" fill="#1F1244"/>
<path d="M136.112 135.31L121.992 135.84L136.112 136.37C138.062 137.14 139.622 138.7 140.392 140.65L140.922 154.77L141.452 140.65C142.222 138.69 143.782 137.14 145.732 136.37L159.852 135.84L145.732 135.31C143.772 134.54 142.222 132.98 141.452 131.03L140.922 116.91L140.392 131.03C139.622 132.98 138.062 134.54 136.112 135.31Z" fill="#1F1244"/>
</svg>
