<svg width="160" height="155" viewBox="0 0 160 155" fill="none" xmlns="http://www.w3.org/2000/svg">
<path d="M88.66 81.0234L123.54 79.7034L88.66 78.3834C83.83 76.4834 79.99 72.6434 78.09 67.8134L76.77 32.9434L75.45 67.8234C73.55 72.6534 69.71 76.4834 64.88 78.3934L30 79.7134L64.88 81.0334C69.7 82.9334 73.54 86.7734 75.44 91.6034L76.76 126.483L78.08 91.6034C79.98 86.7834 83.82 82.9434 88.64 81.0334L88.66 81.0234Z" fill="#1F1244"/>
<path d="M112.906 111.23L117.736 111.05L112.906 110.87C112.226 110.61 111.686 110.07 111.426 109.39L111.246 104.57L111.066 109.4C110.806 110.08 110.266 110.61 109.586 110.88L104.766 111.06L109.596 111.24C110.276 111.5 110.806 112.04 111.076 112.72L111.256 117.55L111.436 112.73C111.696 112.05 112.236 111.51 112.916 111.25L112.906 111.23Z" fill="#1F1244"/>
<path d="M149.9 141.758L159.85 141.378L149.9 140.998C148.5 140.458 147.4 139.348 146.85 137.958L146.47 128.008L146.09 137.958C145.55 139.358 144.44 140.458 143.04 141.008L133.09 141.388L143.04 141.768C144.44 142.308 145.54 143.418 146.09 144.818L146.47 154.768L146.85 144.818C147.39 143.418 148.5 142.318 149.9 141.778L149.9 141.758Z" fill="#1F1244"/>
<path d="M20.0211 135.459L24.8511 135.279L20.0211 135.099C19.3411 134.839 18.8111 134.299 18.5411 133.619L18.3611 128.789L18.1811 133.619C17.9211 134.299 17.3811 134.829 16.7011 135.099L11.8711 135.279L16.7011 135.459C17.3811 135.719 17.9111 136.259 18.1811 136.939L18.3611 141.769L18.5411 136.939C18.8011 136.259 19.3411 135.729 20.0211 135.459Z" fill="#1F1244"/>
<path d="M23.74 19.46L37.86 18.93L23.74 18.4C21.79 17.63 20.23 16.07 19.46 14.12L18.93 3.3062e-06L18.4 14.12C17.63 16.08 16.07 17.63 14.12 18.4L-3.31541e-06 18.93L14.12 19.46C16.08 20.23 17.63 21.79 18.4 23.74L18.93 37.86L19.46 23.74C20.23 21.79 21.79 20.23 23.74 19.46Z" fill="#1F1244"/>
</svg>
