<svg width="152" height="52" viewBox="0 0 152 52" fill="none" xmlns="http://www.w3.org/2000/svg">
<path d="M14.0312 8.47457C13.9478 8.72474 13.9686 9.04788 13.9686 9.30847C13.8227 9.4961 13.8748 9.88178 13.6142 10.0069C13.3223 10.7365 14.1146 10.6427 13.854 11.3828C13.6142 11.3828 13.7601 11.7059 13.708 11.831C13.5308 11.8936 13.6455 12.2167 13.6142 12.3731C13.4683 12.3731 13.4995 12.5294 13.4995 12.6232V12.7796C13.2598 12.8109 13.4057 13.134 13.3536 13.2904C13.2598 13.2904 13.0617 13.2904 13.1138 13.4467V13.6343C12.9053 13.6343 13.1138 13.8845 12.9679 14.02C12.5822 13.6969 12.1027 13.5718 11.5189 13.6343C11.4251 13.478 11.2791 13.4154 11.1019 13.3425L11.1957 12.6441C11.227 12.3522 11.5502 12.2584 11.3417 11.977C11.1957 11.4037 10.6328 11.1118 10.4556 10.601C10.0699 10.1215 10.3618 9.03745 9.5904 8.81855H9.38191C9.35064 8.46414 8.90239 8.49542 8.61051 8.4016H8.4333C8.22481 8.24524 8.11014 7.92211 7.75572 8.01592V7.95338C7.5785 7.85956 7.33874 7.92211 7.1928 7.92211V7.85956C6.35885 7.47388 6.06697 8.12016 5.44151 8.24524C5.37896 8.56838 5.20175 8.46414 5.20175 8.78728C4.70138 8.91237 4.28441 9.14169 4.07592 9.54822C3.83616 9.57949 3.96125 9.90263 3.96125 10.059C3.69022 10.059 4.0238 10.5697 3.69022 10.4759C3.51301 11.2369 2.98136 11.56 2.825 12.2271C2.79373 12.1646 2.67906 12.2584 2.67906 12.3209V12.5398C2.64778 12.4773 2.53312 12.5711 2.58524 12.6337V12.8213C2.26208 12.6649 2.4393 13.0715 2.23081 13.1444L2.13699 18.2417C1.65747 18.3667 1.78256 19.1694 1.75129 19.6801C1.63662 19.6489 1.5428 19.7427 1.60535 19.8365C1.45941 20.2534 1.9285 19.9928 1.87638 20.3473L2.02232 20.1596C2.08487 20.316 2.19954 20.6704 2.50184 20.5766C2.56439 20.8997 2.40802 21.3688 2.59566 21.5668C2.50184 21.9525 1.67832 21.5668 1.73044 22.1401C1.6679 22.0776 1.52195 22.1401 1.5845 22.234H1.61577V22.4529H1.5845C1.87638 21.5564 0.95904 21.5877 1.29262 20.7642C1.43856 20.8893 1.50111 20.6704 1.43856 20.5766L1.46983 20.3577C1.70959 20.3264 1.56365 20.0033 1.61577 19.7844C0.781826 19.628 1.32389 18.3459 0.698431 17.9706C0.698431 17.6162 0.583763 17.3348 0.31273 17.1784C0.218911 16.6677 0.489944 16.0631 0.250184 15.5836H0.114668C0.0833948 15.3334 0.229336 14.9477 0 14.7914V14.635C0.145941 14.6663 0.145941 14.5099 0.145941 14.3849V14.1972H0.23976C0.448247 13.5614 0.125092 12.5711 0.562915 12.1542C0.562915 11.8623 0.854797 11.7685 0.740129 11.3932C0.854797 11.4558 0.854797 11.2994 0.854797 11.2369C0.854797 10.9137 1.17795 10.8825 1.09456 10.4759H1.1571C1.30304 10.059 1.07371 9.42313 1.39686 9.17296C1.51153 8.98533 1.81384 8.81855 1.75129 8.47457C2.07445 8.41203 1.81384 7.90126 1.99105 7.68236C2.34548 7.42177 2.87712 7.32795 3.03349 6.81719C3.32537 6.87973 3.24197 6.56702 3.32537 6.40024C3.41919 6.40024 3.47131 6.40024 3.50258 6.33769C3.56513 6.08752 3.85701 6.04583 4.03422 5.88947C4.86817 5.73311 5.27472 4.71158 6.4631 5.12853C6.55691 5.09726 6.52564 4.97218 6.52564 4.94091L6.70286 5.12853C6.7654 5.09726 6.7654 4.97218 6.7654 4.94091C7.35959 5.09726 7.59935 4.69073 8.16226 4.84709C8.22481 5.06599 8.45415 4.90963 8.66263 4.97218C8.7773 5.26404 9.22555 5.22235 9.5487 5.32659C9.51743 5.4204 9.61125 5.48294 9.66337 5.48294H9.84058C9.80931 5.57676 9.9344 5.6393 9.98653 5.60803H10.195V5.6393C11.1436 6.11879 11.3834 5.09726 12.3007 5.34743V5.44125C12.9783 5.34743 13.2181 5.82693 13.6663 5.98328C13.8435 6.23345 13.9061 6.52532 13.9061 6.87973C13.8435 6.87973 13.7914 6.94227 13.7601 6.94227C13.7601 7.54685 14.2292 7.86999 14.1146 8.50584H14.0207L14.0312 8.47457ZM13.3223 21.2333C13.2598 21.8691 13.3223 22.4424 12.9366 22.7343C12.9679 22.9532 12.8219 23.12 12.8741 23.3076C12.7281 23.3076 12.5822 23.2763 12.5196 23.3702V23.5578C12.3424 23.7767 12.1965 24.1936 11.9567 24.35L11.9255 24.5376C11.4459 24.4438 11.1541 24.7252 10.9143 24.9546V25.1109C10.6224 25.2986 10.6224 25.7155 10.0803 25.653C9.69464 25.8093 9.21512 26.0699 8.63136 26.0699V26.1637H7.00516C7.00516 26.1012 7.00516 26.0074 6.89049 26.0074C6.85922 26.0074 6.85922 26.1012 6.85922 26.1325C6.85922 26.0074 6.61946 26.0074 6.47352 25.9761C6.3797 25.9761 6.41097 26.1012 6.41097 26.1325H5.63957V26.0386C4.54502 26.0074 3.80489 25.4028 3.14815 24.7982C3.17943 24.7044 3.08561 24.6106 3.05433 24.5063H2.84585C2.93967 24.1207 2.55397 24.2249 2.52269 23.9018C2.23081 23.808 2.19954 23.3285 1.84511 23.2972L1.87638 22.2444H2.14742C2.11614 22.5675 2.4393 22.4007 2.50184 22.6301C2.53312 22.2131 3.1273 22.2131 2.88754 21.5773C3.06476 21.7336 2.77288 22.3695 3.27325 22.2757H3.41919C3.65895 22.7239 4.12804 22.849 4.46162 23.1721C4.60756 23.2034 4.70138 23.5265 4.99326 23.4223C5.1392 23.808 5.70212 23.6412 5.85848 24.1207C5.92103 24.2145 6.06697 24.1519 6.21291 24.1519V24.2145C6.86965 24.4647 7.2762 24.0581 7.93293 24.1207V23.9643C8.4333 23.7767 9.1213 23.7767 9.15258 23.0679C9.44446 22.7447 10.0386 22.9115 10.1012 22.3382C10.195 22.2757 10.341 22.2757 10.341 22.1506V21.9942C10.7267 21.7753 10.2471 20.9414 10.7267 20.9101C10.8413 20.7851 10.8413 20.66 10.8726 20.4932C11.0811 20.2743 11.1645 19.8573 11.4668 19.6697C11.5293 19.4508 11.6753 19.2528 11.8525 19.1589C12.2069 19.0339 12.4467 18.7733 12.9158 18.8984C12.8845 19.0547 13.0617 18.9922 13.1555 18.9922H13.3015C13.6246 19.8261 13.3015 20.2951 13.4161 21.2229H13.3223V21.2333ZM11.7795 21.8379H11.9567V21.7128C11.9567 21.7128 11.8108 21.8379 11.7795 21.8379Z" fill="white"/>
<path d="M25.8421 25.2985C25.8004 25.4757 25.6128 25.3923 25.4668 25.4549C25.4251 25.4549 25.3626 25.4549 25.3626 25.4966C25.1541 25.7259 24.8101 25.7467 24.5599 25.7676C24.5599 25.705 24.4765 25.7051 24.414 25.7051H24.2889V25.6634C23.8094 25.6634 23.7364 25.4549 23.3611 25.2985C23.2986 25.1422 23.1318 25.0484 23.0067 24.9337C22.5689 24.8399 22.2874 25.09 22.0581 25.2777C21.8704 25.4132 21.443 25.3194 21.3388 25.5278C20.7967 25.778 20.0566 25.6008 19.6709 25.9761C19.4624 26.0386 19.2331 25.9344 19.1184 26.0907C19.0142 25.9344 18.7431 26.049 18.5451 25.9761C18.5451 25.9344 18.4825 25.8823 18.4408 25.8823H18.3157C18.3157 25.8093 18.2323 25.8093 18.1698 25.8093C18.003 25.8093 17.9405 25.5174 17.7111 25.6321C17.6486 25.4757 17.4401 25.5383 17.315 25.4757C17.315 25.4549 17.315 25.3611 17.2733 25.3611H17.1482C17.2108 25.0484 16.9814 24.9962 16.8355 24.8607C16.7521 24.4125 16.0954 24.7669 16.0328 24.2457H15.9077C15.866 23.9955 15.6992 23.8809 15.6992 23.589C15.7201 23.0887 15.5741 22.6822 15.5116 22.1818H15.449C15.5116 21.9525 15.2614 21.4313 15.6575 21.4313C15.6992 21.4105 15.6992 21.3583 15.6992 21.2958C16.0954 21.1603 16.2726 20.6391 16.4185 20.2117C16.5436 20.1909 16.5645 20.0032 16.5645 19.899C16.7521 19.826 16.7521 19.555 16.898 19.3778C17.0648 19.357 17.2316 19.1693 17.2942 18.9504C17.1065 18.7003 16.9397 18.3667 16.554 18.252C16.4289 18.1582 16.5332 17.8872 16.3038 17.9393C16.2413 17.7621 16.1371 17.5745 15.9703 17.4911V16.5217C16.0328 16.5634 16.0745 16.48 16.0537 16.407V16.2715C16.1162 16.1152 16.3455 15.865 16.5123 15.8442C16.6791 15.6669 16.9293 15.6148 16.9918 15.323C17.3671 15.3438 17.7111 15.2291 17.8362 14.9373C18.1073 14.7601 18.5972 14.9164 18.8891 14.8018C19.035 14.6246 19.3269 14.708 19.4416 14.4161C20.0566 14.8956 21.1512 14.2806 21.7141 14.8018H22.0685C22.1102 14.979 22.277 14.8956 22.4229 14.8956C22.5689 15.0102 22.6731 15.1458 22.9025 15.1875C22.8816 15.3021 22.9442 15.3647 23.0484 15.3959H23.1109C23.1109 15.3959 23.1109 15.5106 23.1526 15.5106C23.3194 15.6253 23.5071 15.8546 23.5488 15.9901C23.7156 16.0839 23.7156 16.2611 23.8823 16.1986C23.7989 16.6259 24.2993 16.6259 24.2368 17.0325C24.2993 17.0533 24.341 17.168 24.4453 17.1054C24.2993 18.1687 24.5912 19.0026 24.612 19.9615H24.5704C24.3619 20.4619 24.6954 20.7538 24.5912 21.2541C24.5704 21.2541 24.5287 21.2958 24.487 21.3479C24.758 21.5981 24.2159 22.7343 25.0603 22.3694C25.373 22.0567 25.7587 21.8274 26.3216 21.9212C26.4884 21.9421 26.3842 22.2339 26.5927 22.1714C26.7178 22.4216 26.6135 22.9427 26.822 23.12C27.0096 23.3701 26.9054 23.9122 26.8637 24.2457C26.4676 24.6106 26.1861 24.9233 25.8108 25.3298L25.8421 25.2985ZM21.6098 20.9727C21.0886 20.8371 20.7029 21.2854 20.3276 20.9727C20.0566 21.1082 19.7126 21.129 19.379 21.1082V21.1811C19.3373 21.2958 19.2748 21.2541 19.2122 21.2541C19.0663 21.546 18.5555 21.1603 18.5347 21.5668C17.9405 21.6294 17.8779 22.286 17.2733 22.2444V22.359C17.2316 22.432 17.1274 22.3799 17.1065 22.3799L17.0857 23.1304C17.0857 23.4014 17.3567 23.5161 17.5026 23.6307L18.7848 23.6724C18.8057 23.8288 18.8682 23.9434 19.0142 23.9017C19.0767 23.9956 19.2435 23.9434 19.181 24.0789C19.2852 24.0789 19.3061 24.0789 19.3686 24.1206C19.3686 23.8705 19.5771 23.9434 19.6188 23.735C20.0149 23.5786 20.3381 23.3701 20.7342 23.2555C21.1303 23.3701 21.172 22.9427 21.5577 22.9427L21.6203 22.2235C21.662 22.1088 21.8704 21.9733 21.933 21.7961V21.6398C21.933 21.6398 21.9121 21.5043 21.9955 21.5043V21.2749C22.0164 21.0665 21.662 21.1603 21.5994 20.9831L21.6098 20.9727ZM22.3083 17.0533C22.0789 16.7614 21.5473 16.6468 21.0469 16.6051V16.5842L20.9218 16.5634V16.6051C20.3693 16.6051 19.9732 16.8136 19.4311 16.7614C19.4728 16.8761 19.3686 16.9178 19.3686 16.9908C19.0559 17.0116 19.0559 17.2826 18.8891 17.4703C18.8265 17.7413 19.0767 18.3042 18.6389 18.2625C18.4721 18.6898 18.003 18.7628 17.6486 18.9817V19.1902H17.7945C17.7945 19.1902 17.8154 19.2632 17.8154 19.3048C18.347 19.284 18.7431 19.0547 19.3582 19.1485C19.4833 19.4404 19.6292 18.9713 19.796 19.2215C19.8585 19.1068 19.9628 19.1485 20.0253 19.013C20.4632 18.8566 20.9114 18.8358 21.3701 18.742C21.7245 18.6481 21.8913 18.4501 22.2353 18.3354C22.2978 18.1999 22.4021 18.0436 22.4646 17.8559C22.4646 17.783 22.4646 17.7204 22.548 17.7204C22.548 17.4703 22.3395 17.3139 22.3187 17.0637L22.3083 17.0533Z" fill="white"/>
<path d="M38.2996 17.3556C38.1537 17.3347 38.1953 17.512 38.1953 17.5849C38.0494 17.7621 37.9452 18.127 37.6429 18.1061C37.5595 18.127 37.4969 18.0853 37.4552 18.1687V18.2416H36.8402C36.8819 17.9706 36.6108 18.1999 36.5275 18.0331H36.4024C36.4024 17.9706 36.3398 17.9706 36.2564 17.9706H36.1522C36.1939 17.7934 35.9645 17.8142 35.9228 17.7413C35.631 17.3973 35.3078 17.0637 35.0368 16.7197H34.7657C34.7657 16.7197 34.7657 16.6572 34.7449 16.6051C34.7032 16.6051 34.6406 16.6051 34.5989 16.6468V16.7093C34.3279 16.751 34.1194 16.8657 33.9631 17.0012C33.5252 17.1158 33.0144 17.2097 32.8685 17.7204C32.5141 17.8559 32.8685 18.2833 32.6809 18.5856H32.66C32.5766 18.6794 32.6183 18.8775 32.6183 19.013C32.5558 18.9713 32.5141 19.0547 32.5141 19.0755V19.2319C32.4515 19.2319 32.4098 19.2944 32.4307 19.3465C32.5766 19.6593 32.4724 20.1596 32.4932 20.5661C32.4307 20.5661 32.389 20.6287 32.4307 20.6599C32.3473 20.8893 32.1805 21.0039 32.243 21.2958C32.4515 21.4104 32.4098 21.6398 32.4098 21.8587C32.1388 21.7649 32.2847 22.0671 32.1805 22.1505C32.243 22.5154 32.6809 22.5571 32.6809 22.9636C32.806 22.9636 32.9102 23.0783 32.9102 23.2138L33.7337 23.2555C33.7337 23.3493 33.8171 23.3701 33.8797 23.3493H34.0048V23.4118C34.3175 23.5265 34.8491 23.3493 35.0368 23.5682C35.2453 23.5682 35.2453 23.7975 35.3495 23.9122C35.3078 24.1415 35.412 24.3187 35.4329 24.4542L35.5788 24.3812V24.5376C35.3078 24.5376 35.3287 25.0171 35.0993 25.0796V25.236C34.8491 25.2568 34.724 25.3298 34.6198 25.4861C33.6086 25.4653 32.4932 25.4653 31.5446 25.6217C31.211 25.7989 31.0442 25.4861 30.6168 25.58V25.507C30.4292 25.4653 30.0644 25.4132 29.8976 25.58H29.7516L29.7725 25.507C29.4806 25.4653 29.074 25.4861 28.9073 25.2568H28.7405C28.7405 25.1213 28.532 25.2568 28.4694 25.1422L28.4277 24.2144C28.4277 24.2144 28.4694 24.1936 28.5111 24.1415C28.4486 23.9122 28.7822 24.1206 28.7405 23.8496C28.9906 23.7141 29.4806 23.8288 29.6057 23.5994C29.981 23.5369 30.3667 23.6203 30.5126 23.2138C30.7836 23.0574 30.6585 22.4633 30.6168 22.1297C30.2833 22.015 30.6377 21.6293 30.5335 21.2958H30.596L30.6794 19.7322C30.7836 19.7739 30.7836 19.6697 30.7836 19.5967C30.6168 19.3048 30.7211 18.8462 30.7002 18.4918H30.7628C30.596 17.8559 31.1798 17.9081 31.1172 17.3869C30.9504 17.2514 30.8879 16.9386 30.5647 16.9386C30.6273 16.3966 30.1478 16.3966 29.8454 16.1881C29.8454 16.1673 29.7829 16.1256 29.7412 16.1256H29.5953C29.4076 16.0839 29.3659 15.7816 29.0428 15.8546C28.876 15.6774 28.5424 15.5627 28.6466 15.0832C29.1053 14.8122 29.5536 14.4265 30.1582 14.364V14.3848C30.4292 14.5412 30.9609 14.291 31.0859 14.635H31.2736C31.2527 14.7497 31.3361 14.7497 31.3987 14.7497H31.5029C31.5029 14.8643 31.6072 14.8122 31.6697 14.8122C31.899 14.8539 31.9824 15.3125 32.3681 15.1249C32.3681 15.1874 32.3473 15.2604 32.4307 15.2604C32.4932 15.1249 32.7434 15.0311 32.7434 14.833C33.3585 14.7601 34.0673 14.7601 34.3696 14.1346C34.4322 14.0408 34.7032 14.2285 34.6406 13.9574C34.9742 13.8845 35.3599 13.9783 35.7352 13.9783V14.0408L36.4545 14.1763C36.4545 14.2493 36.517 14.2702 36.6004 14.2493H36.7047V14.364C37.0382 14.4265 37.4656 14.364 37.4448 14.8122C37.6533 14.8852 37.8826 15.0415 37.9243 15.2917C37.9243 15.3334 37.9243 15.4063 37.9869 15.4063H38.0494C38.0494 15.521 38.0286 15.5836 38.0911 15.6357H38.1953C38.1953 15.7503 38.1537 15.865 38.2162 15.9275H38.2996L38.2787 17.3347L38.2996 17.3556Z" fill="white"/>
<path d="M51.3706 25.163C51.3706 25.163 51.2663 25.163 51.2663 25.2047V25.3611C51.1829 25.3611 51.1204 25.3194 51.0787 25.3819V25.4757L49.7548 25.4549C49.6714 25.6321 49.5046 25.7259 49.3378 25.7051C49.2544 25.7468 49.1919 25.7051 49.1502 25.7989V25.8614H48.41V25.7676C48.0556 25.7051 47.6074 25.7051 47.2946 25.5591C47.107 25.4445 46.8985 25.2673 46.6796 25.1735L46.7004 24.6523C46.7004 24.6523 46.8047 24.6106 46.8047 24.5376C46.763 24.4229 46.8255 24.4229 46.9089 24.3812C46.9506 24.3812 47.0132 24.3812 47.0549 24.3083C47.0549 24.1936 47.4302 24.2457 47.2842 23.9643C47.6386 23.4848 48.1703 23.3284 48.1286 22.4945C48.1911 22.5362 48.1911 22.4737 48.1911 22.4007C48.0452 22.1506 48.1703 21.744 48.1286 21.4522C48.3788 21.4522 48.2328 21.1394 48.3788 21.0665C48.3371 20.7955 48.2745 20.5453 48.212 20.316C48.2745 20.316 48.3162 20.2222 48.3162 20.1596V20.0033C48.3788 20.045 48.3788 19.9303 48.3788 19.8677L48.3996 19.7114H48.4205C48.5039 19.5967 48.5039 19.3674 48.4205 19.2111C48.3579 19.2111 48.3996 19.0755 48.3996 18.9817H48.4413C48.5039 18.8462 48.5039 18.6169 48.4413 18.4188H48.3996C48.5873 17.9185 48.483 17.241 48.1703 16.9491C48.1077 16.6364 48.0035 16.4487 47.7533 16.3862C47.7325 16.3445 47.7325 16.1777 47.6282 16.2298H47.524V16.136L45.9603 16.0943C45.9603 16.0943 45.9603 16.0526 45.9395 16.0214C45.8978 16.1569 45.6893 16.0422 45.5433 16.0943C45.4808 16.2715 45.5016 16.4592 45.5016 16.6572C45.4808 16.6155 45.4391 16.6572 45.4391 16.6781C45.3974 16.9491 45.0847 16.7927 45.043 17.1054C44.8345 17.241 44.7719 17.4494 44.5843 17.5849C44.4801 17.6996 44.2507 17.6996 44.2716 17.9289C44.2299 17.9706 44.1048 17.9289 44.1256 18.0436C43.9588 18.1061 43.9588 18.3876 43.9171 18.5648C43.7087 18.742 43.6044 18.9713 43.6253 19.357C43.3959 19.3153 43.6044 19.6697 43.5002 19.7427L43.4793 19.8782C43.4168 19.8782 43.4168 19.9199 43.3751 19.9199C43.5627 20.0345 43.4585 20.3055 43.4793 20.4828C43.3751 20.6912 43.2291 20.8267 43.3125 21.0978H43.2708C42.979 21.6815 43.5419 21.9317 43.3542 22.5258C43.25 22.505 43.2917 22.6405 43.2917 22.6822V22.8385C43.1457 23.0678 43.521 23.3389 43.4585 23.6724C43.3751 23.6307 43.3751 23.6724 43.3542 23.6933C43.4168 24.1207 43.9484 23.8496 44.2194 23.9434C44.3028 24.079 44.5113 24.1728 44.6364 24.2353V24.9546C44.4905 24.9963 44.5947 25.2256 44.553 25.3402C44.1361 25.4549 43.6878 25.2464 43.3751 25.4966H42.9373C42.9373 25.4966 42.979 25.3819 42.9164 25.3611C42.7288 25.6529 42.1763 25.3819 41.9678 25.5696C41.8844 25.4132 41.6551 25.5279 41.457 25.4966V25.3611L40.4041 25.2985C40.4041 25.2985 40.4041 25.2047 40.3833 25.2047H40.279C40.2373 25.0901 40.279 24.9754 40.1957 24.9129L40.1748 24.1415C40.2374 24.1415 40.279 24.0685 40.279 24.006V23.8913C40.279 23.8913 40.3833 23.9122 40.425 23.8496V23.735C40.5918 23.5995 40.9566 23.735 41.1651 23.6203V23.5578C41.1651 23.5578 41.2277 23.7141 41.3319 23.6724C41.7697 23.1512 41.1443 22.359 41.5612 21.9108L41.6238 20.3264C41.6238 20.3264 41.728 20.2847 41.6863 20.2326C41.6238 19.7844 41.5195 19.3778 41.457 18.9192H41.4987L41.5404 17.856H41.6029C41.7072 17.6266 41.4987 17.1784 41.7489 17.1054C41.8948 16.8344 42.0825 16.5634 41.9365 16.2194C41.8323 16.1048 41.9157 15.8129 41.6655 15.8129C41.6655 15.6982 41.6655 15.5419 41.5195 15.5419H41.457C41.3528 15.3855 41.186 15.3126 41.04 15.1562H40.7898V15.0415C40.7898 15.0415 40.8941 15.0832 40.9358 14.9998V14.8643H41.4361C41.4361 14.8643 41.457 14.979 41.4987 14.9373H41.6446C41.6029 15.0311 41.6446 15.0311 41.6655 15.052C41.874 15.0311 41.8114 14.6454 42.1242 14.8018V14.8435C42.4786 14.979 42.6975 14.7497 42.9685 14.6871C43.2187 14.9165 43.2813 15.3438 43.3021 15.7504L43.4064 15.6357C43.4064 15.7504 43.4897 15.7504 43.5523 15.7504C43.7191 15.6357 44.0527 15.5731 44.2299 15.4376C44.2716 15.4376 44.2716 15.3959 44.2716 15.3438C44.2924 15.3438 44.3758 15.5523 44.4384 15.3855V15.3438H44.5843C44.5843 15.3438 44.5843 15.4376 44.6052 15.4376C44.8136 15.2604 45.1472 15.1666 45.2619 14.8226C45.3661 14.7601 45.5329 14.6142 45.5746 14.4578C45.8457 14.3431 46.3564 14.5516 46.5232 14.2806C46.6275 14.2806 46.8151 14.3223 46.8151 14.1659H47.4718C47.6595 14.3223 47.9931 14.2598 48.1077 14.4161L49.3691 14.5099C49.3691 14.5099 49.4108 14.5725 49.4525 14.5725H49.5567C49.7235 14.9581 49.8486 15.4064 50.2134 15.5731C50.2343 16.0943 50.1301 16.751 50.2968 17.2514H50.3802L50.3594 18.1791C50.1926 18.2729 50.1718 18.5231 50.1926 18.742L50.2134 23.1304C50.4845 23.0679 50.2343 23.5786 50.547 23.4014C50.7347 23.7871 51.1829 23.7871 51.3706 24.1311H51.4748C51.5582 24.4438 51.5999 24.9441 51.3914 25.1526L51.3706 25.163Z" fill="white"/>
<path d="M62.9947 23.0157C62.8904 23.4431 62.2754 23.464 62.338 24.0581C62.3171 24.0581 62.2754 24.079 62.2546 24.079L62.2337 24.2353C62.0044 24.1415 62.1086 24.4855 61.8376 24.4438C61.8167 24.7357 61.504 24.6523 61.4206 24.892C60.8473 24.965 60.6388 25.4757 60.0133 25.507C59.5755 25.507 59.294 25.7363 58.8354 25.778C58.7937 25.7155 58.6686 25.6842 58.5643 25.6842C58.5643 25.6217 58.5018 25.5904 58.4393 25.5904C58.3976 25.6113 58.3142 25.5904 58.3142 25.6113V25.6738H58.1682C58.1474 25.4966 57.9389 25.6113 57.8138 25.5591C57.8138 25.4236 57.6053 25.5383 57.5219 25.4966V25.4549C57.376 25.3819 57.2092 25.434 57.1258 25.3819C57.1258 25.3402 57.0632 25.3194 56.9798 25.3194C56.5837 25.2047 56.3857 24.7774 56.0312 24.5897C55.8853 24.5168 55.9895 24.1623 55.8019 24.1415C55.6976 23.6933 55.3849 23.5995 55.0409 23.391C54.9992 23.2346 54.8324 23.2138 54.749 23.0991C54.5822 23.0262 54.6865 22.6926 54.478 22.6926C54.5822 22.0776 54.0819 22.0776 54.1027 21.5356C53.9985 21.1082 54.1653 20.4306 53.9776 20.045C53.8734 19.972 54.0193 19.6801 53.8525 19.6384C53.9151 19.5655 53.9568 19.3883 53.9151 19.2527C53.9776 19.2736 54.0193 19.211 54.0193 19.1798C53.9776 19.0234 54.061 19.0234 54.1236 19.0026L54.1861 18.3876C54.3321 18.325 54.2278 17.981 54.4363 17.9602V17.5954H54.4572L54.5405 16.8449C54.6031 16.8449 54.7073 16.8449 54.7073 16.7302C54.6656 16.553 54.9992 16.5947 54.9992 16.4175C55.3119 16.282 55.4787 15.9693 55.4996 15.5523C55.5413 15.4168 55.8332 15.5315 55.7498 15.2396C55.9374 15.2813 55.7081 14.9477 55.9374 14.9894C56.0208 14.8539 56.1667 14.8539 56.1042 14.6767C56.5003 14.5412 56.886 14.3119 57.3447 14.2702V14.1555C57.4906 14.1555 57.6574 14.2702 57.6783 14.093C57.72 14.2076 57.8451 14.1555 57.9493 14.1555V14.2702C58.1369 14.3327 58.4497 14.3327 58.6477 14.2702H58.6269V14.1555H58.6477C58.7103 14.4265 59.169 14.1972 59.2628 14.5412L59.3462 14.4265C59.3879 14.6037 59.5755 14.4891 59.6797 14.5412C59.7423 14.4057 59.9716 14.4995 60.1176 14.4265C60.2427 14.5829 60.5137 14.5829 60.5137 14.8331C60.5762 15.1249 60.9098 14.9477 60.889 15.2396C61.0558 15.1979 61.0975 15.4168 61.2643 15.3751C61.431 15.5315 61.4936 15.8025 61.7229 15.8025C61.848 15.9797 61.8063 16.2298 62.0356 16.3237C62.0773 16.5738 62.0982 16.7093 62.265 16.7719C62.4735 17.0012 62.7237 17.0638 62.6611 17.4703C62.682 18.0332 62.7237 18.6273 62.953 19.0547C63.0155 19.3674 62.8071 19.4821 62.7654 19.7322C62.3275 20.4098 61.2017 20.0033 60.5554 20.3472C60.5345 20.2117 60.3261 20.3055 60.2427 20.2326C59.9925 20.3472 59.8257 20.4619 59.5234 20.4411C59.3983 20.4202 59.2315 20.4411 59.0647 20.4202C59.1064 20.3264 59.023 20.3264 58.9605 20.3264C58.7311 20.5036 58.5018 20.3994 58.1995 20.3994C58.0327 19.972 57.3343 20.2222 56.959 20.17C56.959 20.3472 56.8339 20.4202 56.6671 20.4202C56.5212 20.4411 56.3752 20.4202 56.2293 20.4932V20.5557C56.0417 20.514 55.9583 20.6287 55.8749 20.7642V20.858C55.8749 20.858 55.7706 20.858 55.7706 20.9206C56 21.0978 55.7498 21.7336 56.125 21.8274C56.125 22.4633 56.6046 22.6196 56.7818 23.12C56.5524 23.2346 56.886 23.2972 56.8026 23.4327L58.1474 23.4118V23.3389C58.7207 22.9949 58.5643 23.6307 59.1168 23.6099C59.1168 23.6307 59.0751 23.7037 59.1377 23.7454C59.2836 23.5369 59.6381 23.6516 59.7527 23.318C60.1488 23.2451 60.3261 22.7968 60.7639 22.7343C60.889 22.4424 61.2226 22.4841 61.3372 22.1193C61.5457 22.0463 61.5457 21.8483 61.65 21.6711C61.775 21.8483 62.0461 21.744 62.2441 21.744C62.2441 21.8066 62.2858 21.8587 62.3484 21.8587H62.4318C62.5777 21.9317 62.682 22.0359 62.8071 22.1506H62.9321C62.9738 22.4007 63.1198 22.5571 63.0572 22.8698C62.9947 22.8698 62.9947 22.9428 62.9947 23.0053V23.0157ZM60.7222 17.3973C60.7222 17.3973 60.6179 17.4182 60.6179 17.3556C60.7847 16.9699 60.3469 16.9491 60.2635 16.7719C60.1593 16.7719 59.9508 16.8865 59.9299 16.7093C59.6589 16.6364 59.4921 16.4175 59.4296 16.1256H59.3045L59.2628 16.0526H59.1377C59.1377 16.0526 59.0126 16.0526 59.0334 15.938C58.7833 16.0005 58.335 15.865 58.2308 16.0735C57.6574 16.0005 57.3655 16.3237 56.9277 16.4592C56.8026 16.5217 56.6984 16.5947 56.7401 16.7719C56.6358 16.8865 56.5941 17.0638 56.4274 17.0012C56.3023 17.2722 56.1355 17.5224 56.0312 17.7726C56.0938 17.9498 56.1563 18.1166 56.3231 18.1374C56.3857 18.1374 56.4274 18.2312 56.4274 18.2521L57.2926 18.2938C57.4177 18.3563 57.4802 18.3563 57.5845 18.471H57.6887C57.7512 18.471 57.8138 18.5127 57.8138 18.5856C58.0848 18.7003 58.0431 18.3355 58.2516 18.3146C58.4184 18.1999 58.6686 18.1374 58.9917 18.1791C59.1168 18.3876 59.513 18.3146 59.8153 18.4084V18.4293L60.1905 18.4084C60.4824 18.4084 60.545 18.1582 60.8264 18.0436C60.889 17.8351 60.8264 17.5432 60.743 17.4077L60.7222 17.3973Z" fill="white"/>
<path d="M76.1912 17.3556C76.0452 17.3347 76.0869 17.512 76.0869 17.5849C75.941 17.7621 75.8368 18.127 75.5345 18.1061C75.4511 18.127 75.3885 18.0853 75.3468 18.1687V18.2416H74.7318C74.7735 17.9706 74.5024 18.1999 74.4191 18.0331H74.294C74.294 17.9706 74.2314 17.9706 74.148 17.9706H74.0438C74.0855 17.7934 73.8561 17.8142 73.8144 17.7413C73.5226 17.3973 73.1994 17.0637 72.9284 16.7197H72.6573C72.6573 16.7197 72.6573 16.6572 72.6365 16.6051C72.5948 16.6051 72.5322 16.6051 72.4906 16.6468V16.7093C72.2195 16.751 72.011 16.8657 71.8547 17.0012C71.4168 17.1158 70.906 17.2097 70.7601 17.7204C70.4057 17.8559 70.7601 18.2833 70.5725 18.5856H70.5516C70.4682 18.6794 70.5099 18.8775 70.5099 19.013C70.4474 18.9713 70.4057 19.0547 70.4057 19.0755V19.2319C70.3431 19.2319 70.3014 19.2944 70.3223 19.3465C70.4682 19.6593 70.364 20.1596 70.3848 20.5661C70.3223 20.5661 70.2806 20.6287 70.3223 20.6599C70.2389 20.8893 70.0721 21.0039 70.1346 21.2958C70.3431 21.4104 70.3014 21.6398 70.3014 21.8587C70.0304 21.7649 70.1763 22.0671 70.0721 22.1505C70.1346 22.5154 70.5725 22.5571 70.5725 22.9636C70.6976 22.9636 70.8018 23.0783 70.8018 23.2138L71.6253 23.2555C71.6253 23.3493 71.7087 23.3701 71.7713 23.3493H71.8964V23.4118C72.2091 23.5265 72.7407 23.3493 72.9284 23.5682C73.1369 23.5682 73.1369 23.7975 73.2411 23.9122C73.1994 24.1415 73.3036 24.3187 73.3245 24.4542L73.4704 24.3812V24.5376C73.1994 24.5376 73.2203 25.0171 72.9909 25.0796V25.236C72.7407 25.2568 72.6156 25.3298 72.5114 25.4861C71.5002 25.4653 70.3848 25.4653 69.4362 25.6217C69.1026 25.7989 68.9358 25.4861 68.5085 25.58V25.507C68.3208 25.4653 67.956 25.4132 67.7892 25.58H67.6432L67.6641 25.507C67.3722 25.4653 66.9656 25.4861 66.7989 25.2568H66.6321C66.6321 25.1213 66.4236 25.2568 66.361 25.1422L66.3193 24.2144C66.3193 24.2144 66.361 24.1936 66.4027 24.1415C66.3402 23.9122 66.6738 24.1206 66.6321 23.8496C66.8822 23.7141 67.3722 23.8288 67.4973 23.5994C67.8726 23.5369 68.2583 23.6203 68.4042 23.2138C68.6752 23.0574 68.5501 22.4633 68.5085 22.1297C68.1749 22.015 68.5293 21.6293 68.4251 21.2958H68.4876L68.571 19.7322C68.6752 19.7739 68.6752 19.6697 68.6752 19.5967C68.5084 19.3048 68.6127 18.8462 68.5918 18.4918H68.6544C68.4876 17.8559 69.0714 17.9081 69.0088 17.3869C68.842 17.2514 68.7795 16.9386 68.4563 16.9386C68.5189 16.3966 68.0394 16.3966 67.7371 16.1881C67.7371 16.1673 67.6745 16.1256 67.6328 16.1256H67.4869C67.2992 16.0839 67.2575 15.7816 66.9344 15.8546C66.7676 15.6774 66.434 15.5627 66.5383 15.0832C66.9969 14.8122 67.4452 14.4265 68.0498 14.364V14.3848C68.3208 14.5412 68.8525 14.291 68.9775 14.635H69.1652C69.1443 14.7497 69.2277 14.7497 69.2903 14.7497H69.3945C69.3945 14.8643 69.4988 14.8122 69.5613 14.8122C69.7906 14.8539 69.874 15.3125 70.2597 15.1249C70.2597 15.1874 70.2389 15.2604 70.3223 15.2604C70.3848 15.1249 70.635 15.0311 70.635 14.833C71.2501 14.7601 71.9589 14.7601 72.2612 14.1346C72.3238 14.0408 72.5948 14.2285 72.5322 13.9574C72.8658 13.8845 73.2515 13.9783 73.6268 13.9783V14.0408L74.3461 14.1763C74.3461 14.2493 74.4086 14.2702 74.492 14.2493H74.5963V14.364C74.9298 14.4265 75.3572 14.364 75.3364 14.8122C75.5449 14.8852 75.7742 15.0415 75.8159 15.2917C75.8159 15.3334 75.8159 15.4063 75.8785 15.4063H75.941C75.941 15.521 75.9202 15.5836 75.9827 15.6357H76.0869C76.0869 15.7503 76.0453 15.865 76.1078 15.9275H76.1912L76.1703 17.3347L76.1912 17.3556Z" fill="white"/>
<path d="M87.2528 10.4134C93.966 4.8679 101.565 1.26128 107.434 1.26128C112.417 1.26128 116.285 3.08544 118.932 6.4002L118.557 6.69207C115.951 3.91934 112.115 3.45027 109.165 3.45027C102.451 3.45027 94.9564 6.32723 88.4411 10.9971C90.0361 11.9457 91.0159 13.405 91.0159 15.2291C91.0159 18.8775 87.3883 21.5043 83.9274 21.5043C83.4479 21.5043 82.9788 21.473 82.4993 21.3583L82.6035 20.9622C83.01 21.0352 83.4166 21.0769 83.8544 21.0769C87.0443 21.0769 90.0569 18.742 90.0569 15.6461C90.0569 13.7907 89.1708 12.3626 87.8157 11.4557C82.9996 15.0311 78.8299 19.5863 75.984 24.6522C78.1523 26.2888 81.2066 26.6536 83.3124 26.6536C88.2639 26.6536 92.5379 23.3388 95.3525 18.742C99.3242 12.2479 102.306 5.98325 109.936 4.34672L110.04 4.85748C103.119 6.24384 101.795 14.5516 97.4582 20.4619C94.4456 24.5793 88.7122 27.2373 83.2811 27.2373C81.0086 27.2373 77.923 26.7995 75.6192 25.3402C73.4509 29.4263 72.1583 33.8669 72.1583 38.4221C72.1583 45.062 76.0257 51.0348 84.8447 51.0348C92.8819 51.0348 102.107 44.2177 102.107 34.7425C102.107 31.5007 100.481 28.4778 96.103 28.4778C93.9035 28.4778 91.5893 29.3846 89.223 30.8857L88.9832 30.4479C91.1515 29.0615 93.6325 27.9357 96.103 27.9357C100.815 27.9357 103.463 30.8127 103.463 34.6487C103.463 44.3845 93.1529 51.5665 84.8135 51.5665C75.4837 51.5665 71.585 45.3643 71.585 38.3699C71.585 33.8147 72.9401 29.2908 75.1501 25.0588C73.4509 23.8183 72.2625 21.9629 72.2625 19.2215C72.2625 14.0096 77.923 9.74624 83.3228 9.74624C84.7509 9.74624 86.1061 9.99641 87.2528 10.4342V10.4134ZM86.742 10.8512C85.7204 10.4134 84.532 10.1945 83.3124 10.1945C78.0585 10.1945 73.4092 14.3119 73.4092 18.8358C73.4092 21.3896 74.2536 23.0991 75.5462 24.2666C78.3295 19.2319 82.2908 14.6037 86.742 10.8512Z" fill="white"/>
<path d="M115.773 19.7323L116.128 19.9928C114.46 22.1297 111.677 25.507 108.612 25.507C107.424 25.507 106.902 24.9546 106.902 24.1415C106.902 23.7558 107.017 23.2868 107.298 22.776V22.7343C105.912 24.4021 104.473 25.507 102.566 25.507C100.658 25.507 100.335 24.3083 100.335 23.4952C100.335 20.3785 104.036 16.5322 107.934 16.5322C109.164 16.5322 109.925 17.0846 110.28 17.6475L110.363 17.5224C110.686 17.0533 110.916 16.7927 111.552 16.7927H113.303C113.543 16.7927 113.616 16.9178 113.616 17.0533C113.616 17.095 113.616 17.1784 113.501 17.3973C112.552 19.0234 109.8 22.9532 109.8 24.0164C109.8 24.3604 109.957 24.5272 110.238 24.5272C111.155 24.5272 113.178 23.0783 115.763 19.7427L115.773 19.7323ZM103.243 23.8809C103.243 24.2666 103.483 24.5689 103.879 24.5689C105.87 24.5689 109.362 19.6593 109.362 17.9915C109.362 17.2201 108.841 17.095 108.403 17.095C106.339 17.095 103.233 21.8379 103.233 23.8913L103.243 23.8809Z" fill="white"/>
<path d="M117.796 23.3284C117.796 24.4438 118.515 24.5272 118.786 24.5272C119.735 24.5272 121.809 22.9428 124.353 19.7427L124.707 20.0032C123.039 22.1401 120.173 25.5174 117.15 25.5174C115.086 25.5174 114.721 24.2353 114.721 23.3389C114.721 19.1902 124.905 0 134.569 0C136.831 0 137.873 0.77136 137.873 1.9284C137.873 2.31408 137.79 2.78315 137.592 3.25222H137.112C136.872 1.37594 135.799 0.562884 134.089 0.562884C129.638 0.562884 123.55 10.2674 120.131 16.9282C118.338 20.4306 117.785 22.3173 117.785 23.3389L117.796 23.3284Z" fill="white"/>
<path d="M133.62 19.7323L133.974 19.9929C132.307 22.1298 129.283 25.5071 125.385 25.5071C123.394 25.5071 122.758 24.5272 122.758 23.537C122.758 20.2847 126.302 16.5322 129.961 16.5322C132.223 16.5322 132.588 17.5537 132.588 18.2C132.588 20.6808 129.085 22.1714 126.031 22.1714C125.875 22.5154 125.677 23.2868 125.677 23.7142C125.677 24.35 125.833 24.7357 126.594 24.7357C128.345 24.7357 131.045 23.0679 133.63 19.7323H133.62ZM130.357 17.5954C130.357 17.3348 130.242 17.168 129.919 17.168C129.044 17.168 127.292 19.1798 126.177 21.7024C128.679 21.4418 130.347 18.9297 130.347 17.5954H130.357Z" fill="white"/>
<path d="M137.079 22.9844C134.098 22.9844 131.513 24.5688 131.513 26.1428C131.513 26.9142 132.263 27.1227 133.108 27.1227C135.609 27.1227 140.665 24.9441 140.665 22.3382C140.665 20.587 137.726 19.899 137.726 18.7003C137.726 17.8872 138.758 16.8657 139.477 16.8657C139.873 16.8657 140.029 17.1263 140.029 17.5536C140.029 17.9393 139.831 18.6169 139.706 18.9192L140.029 19.2214C141.103 18.9608 141.979 17.981 141.979 17.2513C141.979 16.7406 141.583 16.3966 140.624 16.3549C137.955 16.1881 135.578 17.5953 135.578 19.5654C135.578 21.1915 137.84 21.5772 137.84 23.0261C137.559 23.0261 137.319 22.9844 137.09 22.9844H137.079ZM133.379 26.664C132.701 26.664 132.42 26.4034 132.42 25.9761C132.42 24.3916 134.89 23.4118 137.069 23.4118C137.309 23.4118 137.548 23.4535 137.788 23.4535C137.434 25.2464 135.161 26.664 133.379 26.664Z" fill="white"/>
<path d="M143.507 13V8.94286H142V8H146.105V8.94286H144.597V13H143.507Z" fill="white"/>
<path d="M146.691 13V8H147.593L149.598 11.5286H149.12L151.092 8H151.987L152 13H150.977L150.971 9.66429H151.159L149.584 12.4714H149.093L147.485 9.66429H147.714V13H146.691Z" fill="white"/>
</svg>
