<svg width="188" height="70" viewBox="0 0 188 70" fill="none" xmlns="http://www.w3.org/2000/svg">
<path d="M37.0419 17.6913C36.9585 17.9415 36.9794 18.2646 36.9794 18.5252C36.8334 18.7129 36.8855 19.0985 36.6249 19.2236C36.3331 19.9533 37.1253 19.8595 36.8647 20.5996C36.6249 20.5996 36.7709 20.9227 36.7188 21.0478C36.5415 21.1103 36.6562 21.4335 36.6249 21.5898C36.479 21.5898 36.5103 21.7462 36.5103 21.84V21.9964C36.2705 22.0276 36.4165 22.3508 36.3643 22.5071C36.2705 22.5071 36.0725 22.5071 36.1246 22.6635V22.8511C35.9161 22.8511 36.1246 23.1013 35.9786 23.2368C35.5929 22.9136 35.1134 22.7886 34.5296 22.8511C34.4358 22.6947 34.2899 22.6322 34.1127 22.5592L34.2065 21.8608C34.2378 21.569 34.5609 21.4752 34.3524 21.1937C34.2065 20.6204 33.6436 20.3286 33.4664 19.8178C33.0807 19.3383 33.3725 18.2542 32.6011 18.0353H32.3927C32.3614 17.6809 31.9131 17.7122 31.6213 17.6184H31.444C31.2356 17.462 31.1209 17.1389 30.7665 17.2327V17.1701C30.5892 17.0763 30.3495 17.1389 30.2035 17.1389V17.0763C29.3696 16.6907 29.0777 17.3369 28.4523 17.462C28.3897 17.7851 28.2125 17.6809 28.2125 18.004C27.7121 18.1291 27.2951 18.3585 27.0867 18.765C26.8469 18.7963 26.972 19.1194 26.972 19.2757C26.701 19.2757 27.0345 19.7865 26.701 19.6927C26.5237 20.4536 25.9921 20.7768 25.8357 21.4439C25.8045 21.3814 25.6898 21.4752 25.6898 21.5377V21.7566C25.6585 21.6941 25.5439 21.7879 25.596 21.8504V22.0381C25.2728 21.8817 25.45 22.2882 25.2416 22.3612L25.1477 27.4584C24.6682 27.5835 24.7933 28.3861 24.762 28.8969C24.6474 28.8656 24.5535 28.9594 24.6161 29.0533C24.4702 29.4702 24.9392 29.2096 24.8871 29.564L25.0331 29.3764C25.0956 29.5328 25.2103 29.8872 25.5126 29.7933C25.5751 30.1165 25.4188 30.5856 25.6064 30.7836C25.5126 31.1693 24.6891 30.7836 24.7412 31.3569C24.6786 31.2944 24.5327 31.3569 24.5952 31.4507H24.6265V31.6696H24.5952C24.8871 30.7732 23.9698 30.8045 24.3034 29.981C24.4493 30.1061 24.5118 29.8872 24.4493 29.7933L24.4806 29.5744C24.7203 29.5432 24.5744 29.22 24.6265 29.0011C23.7926 28.8448 24.3346 27.5627 23.7092 27.1874C23.7092 26.833 23.5945 26.5515 23.3235 26.3952C23.2297 25.8844 23.5007 25.2798 23.2609 24.8004H23.1254C23.0941 24.5502 23.2401 24.1645 23.0107 24.0081V23.8518C23.1567 23.8831 23.1567 23.7267 23.1567 23.6016V23.414H23.2505C23.459 22.7781 23.1358 21.7879 23.5737 21.3709C23.5737 21.0791 23.8655 20.9852 23.7509 20.61C23.8655 20.6725 23.8655 20.5162 23.8655 20.4536C23.8655 20.1305 24.1887 20.0992 24.1053 19.6927H24.1678C24.3138 19.2757 24.0845 18.6399 24.4076 18.3897C24.5223 18.2021 24.8246 18.0353 24.762 17.6913C25.0852 17.6288 24.8246 17.118 25.0018 16.8991C25.3562 16.6385 25.8879 16.5447 26.0442 16.034C26.3361 16.0965 26.2527 15.7838 26.3361 15.617C26.4299 15.617 26.482 15.617 26.5133 15.5545C26.5759 15.3043 26.8678 15.2626 27.045 15.1062C27.8789 14.9499 28.2855 13.9283 29.4738 14.3453C29.5677 14.314 29.5364 14.1889 29.5364 14.1577L29.7136 14.3453C29.7761 14.314 29.7761 14.1889 29.7761 14.1577C30.3703 14.314 30.6101 13.9075 31.173 14.0639C31.2356 14.2828 31.4649 14.1264 31.6734 14.1889C31.788 14.4808 32.2363 14.4391 32.5594 14.5434C32.5282 14.6372 32.622 14.6997 32.6741 14.6997H32.8513C32.8201 14.7935 32.9451 14.8561 32.9973 14.8248H33.2058V14.8561C34.1544 15.3356 34.3941 14.314 35.3115 14.5642V14.658C35.9891 14.5642 36.2288 15.0437 36.6771 15.2C36.8543 15.4502 36.9168 15.7421 36.9168 16.0965C36.8543 16.0965 36.8022 16.159 36.7709 16.159C36.7709 16.7636 37.24 17.0868 37.1253 17.7226H37.0315L37.0419 17.6913ZM36.3331 30.45C36.2705 31.0859 36.3331 31.6592 35.9474 31.9511C35.9786 32.17 35.8327 32.3368 35.8848 32.5244C35.7389 32.5244 35.5929 32.4931 35.5304 32.5869V32.7745C35.3532 32.9934 35.2072 33.4104 34.9675 33.5668L34.9362 33.7544C34.4567 33.6606 34.1648 33.942 33.925 34.1713V34.3277C33.6332 34.5153 33.6332 34.9323 33.0911 34.8697C32.7054 35.0261 32.2259 35.2867 31.6421 35.2867V35.3805H30.0159C30.0159 35.318 30.0159 35.2241 29.9012 35.2241C29.87 35.2241 29.87 35.318 29.87 35.3492C29.87 35.2241 29.6302 35.2241 29.4843 35.1929C29.3904 35.1929 29.4217 35.318 29.4217 35.3492H28.6503V35.2554C27.5558 35.2241 26.8156 34.6196 26.1589 34.015C26.1902 33.9212 26.0963 33.8274 26.0651 33.7231H25.8566C25.9504 33.3374 25.5647 33.4417 25.5334 33.1185C25.2416 33.0247 25.2103 32.5452 24.8559 32.514L24.8871 31.4612H25.1582C25.1269 31.7843 25.45 31.6175 25.5126 31.8468C25.5439 31.4299 26.138 31.4299 25.8983 30.794C26.0755 30.9504 25.7836 31.5862 26.284 31.4924H26.4299C26.6697 31.9406 27.1388 32.0657 27.4724 32.3889C27.6183 32.4201 27.7121 32.7433 28.004 32.639C28.1499 33.0247 28.7129 32.8579 28.8692 33.3374C28.9318 33.4312 29.0777 33.3687 29.2237 33.3687V33.4312C29.8804 33.6814 30.2869 33.2749 30.9437 33.3374V33.1811C31.444 32.9934 32.132 32.9934 32.1633 32.2846C32.4552 31.9615 33.0494 32.1283 33.1119 31.555C33.2058 31.4924 33.3517 31.4924 33.3517 31.3673V31.211C33.7374 30.9921 33.2579 30.1582 33.7374 30.1269C33.8521 30.0018 33.8521 29.8767 33.8833 29.71C34.0918 29.4911 34.1752 29.0741 34.4775 28.8865C34.5401 28.6676 34.686 28.4695 34.8632 28.3757C35.2177 28.2506 35.4574 27.99 35.9265 28.1151C35.8952 28.2715 36.0725 28.2089 36.1663 28.2089H36.3122C36.6354 29.0428 36.3122 29.5119 36.4269 30.4396H36.3331V30.45ZM34.7903 31.0546H34.9675V30.9295C34.9675 30.9295 34.8215 31.0546 34.7903 31.0546Z" fill="white"/>
<path d="M48.8529 34.5153C48.8112 34.6925 48.6235 34.6091 48.4776 34.6717C48.4359 34.6717 48.3733 34.6717 48.3733 34.7134C48.1649 34.9427 47.8209 34.9635 47.5707 34.9844C47.5707 34.9218 47.4873 34.9218 47.4247 34.9218H47.2996V34.8801C46.8201 34.8801 46.7471 34.6717 46.3719 34.5153C46.3093 34.3589 46.1425 34.2651 46.0174 34.1505C45.5796 34.0567 45.2982 34.3068 45.0688 34.4945C44.8812 34.63 44.4538 34.5362 44.3495 34.7446C43.8075 34.9948 43.0674 34.8176 42.6816 35.1929C42.4732 35.2554 42.2438 35.1512 42.1292 35.3075C42.0249 35.1512 41.7539 35.2658 41.5558 35.1929C41.5558 35.1512 41.4933 35.099 41.4516 35.099H41.3265C41.3265 35.0261 41.2431 35.0261 41.1805 35.0261C41.0138 35.0261 40.9512 34.7342 40.7219 34.8489C40.6593 34.6925 40.4508 34.7551 40.3257 34.6925C40.3257 34.6717 40.3257 34.5778 40.284 34.5778H40.159C40.2215 34.2651 39.9922 34.213 39.8462 34.0775C39.7628 33.6293 39.1061 33.9837 39.0436 33.4625H38.9185C38.8768 33.2123 38.71 33.0977 38.71 32.8058C38.7308 32.3055 38.5849 31.8989 38.5223 31.3986H38.4598C38.5223 31.1693 38.2722 30.6481 38.6683 30.6481C38.71 30.6272 38.71 30.5751 38.71 30.5126C39.1061 30.3771 39.2833 29.8559 39.4293 29.4285C39.5543 29.4076 39.5752 29.22 39.5752 29.1158C39.7628 29.0428 39.7628 28.7718 39.9088 28.5946C40.0756 28.5737 40.2424 28.3861 40.3049 28.1672C40.1173 27.917 39.9505 27.5835 39.5648 27.4688C39.4397 27.375 39.5439 27.104 39.3146 27.1561C39.252 26.9789 39.1478 26.7913 38.981 26.7079V25.7385C39.0436 25.7802 39.0852 25.6968 39.0644 25.6238V25.4883C39.1269 25.332 39.3563 25.0818 39.5231 25.0609C39.6899 24.8837 39.94 24.8316 40.0026 24.5397C40.3779 24.5606 40.7219 24.4459 40.847 24.1541C41.118 23.9769 41.6079 24.1332 41.8998 24.0186C42.0458 23.8413 42.3376 23.9247 42.4523 23.6329C43.0673 24.1124 44.1619 23.4974 44.7248 24.0186H45.0792C45.1209 24.1958 45.2877 24.1124 45.4337 24.1124C45.5796 24.227 45.6839 24.3625 45.9132 24.4042C45.8923 24.5189 45.9549 24.5814 46.0591 24.6127H46.1217C46.1217 24.6127 46.1217 24.7274 46.1634 24.7274C46.3302 24.842 46.5178 25.0714 46.5595 25.2069C46.7263 25.3007 46.7263 25.4779 46.8931 25.4153C46.8097 25.8427 47.3101 25.8427 47.2475 26.2492C47.3101 26.2701 47.3518 26.3848 47.456 26.3222C47.3101 27.3854 47.6019 28.2193 47.6228 29.1783H47.5811C47.3726 29.6787 47.7062 29.9705 47.6019 30.4709C47.5811 30.4709 47.5394 30.5126 47.4977 30.5647C47.7687 30.8149 47.2267 31.9511 48.071 31.5862C48.3838 31.2735 48.7695 31.0442 49.3324 31.138C49.4992 31.1588 49.3949 31.4507 49.6034 31.3882C49.7285 31.6383 49.6243 32.1595 49.8328 32.3367C50.0204 32.5869 49.9161 33.1289 49.8744 33.4625C49.4783 33.8273 49.1969 34.14 48.8216 34.5466L48.8529 34.5153ZM44.6206 30.1894C44.0994 30.0539 43.7137 30.5021 43.3384 30.1894C43.0673 30.3249 42.7233 30.3458 42.3898 30.3249V30.3979C42.3481 30.5126 42.2855 30.4709 42.223 30.4709C42.077 30.7627 41.5662 30.3771 41.5454 30.7836C40.9512 30.8461 40.8887 31.5028 40.284 31.4611V31.5758C40.2424 31.6488 40.1381 31.5966 40.1173 31.5966L40.0964 32.3472C40.0964 32.6182 40.3674 32.7328 40.5134 32.8475L41.7956 32.8892C41.8164 33.0455 41.879 33.1602 42.0249 33.1185C42.0875 33.2123 42.2543 33.1602 42.1917 33.2957C42.2959 33.2957 42.3168 33.2957 42.3793 33.3374C42.3793 33.0872 42.5878 33.1602 42.6295 32.9517C43.0257 32.7954 43.3488 32.5869 43.7449 32.4722C44.1411 32.5869 44.1828 32.1595 44.5685 32.1595L44.631 31.4403C44.6727 31.3256 44.8812 31.1901 44.9437 31.0129V30.8566C44.9437 30.8566 44.9229 30.721 45.0063 30.721V30.4917C45.0271 30.2832 44.6727 30.3771 44.6102 30.1999L44.6206 30.1894ZM45.319 26.2701C45.0897 25.9782 44.558 25.8636 44.0577 25.8219V25.801L43.9326 25.7802V25.8219C43.3801 25.8219 42.984 26.0303 42.4419 25.9782C42.4836 26.0929 42.3793 26.1346 42.3793 26.2075C42.0666 26.2284 42.0666 26.4994 41.8998 26.687C41.8373 26.9581 42.0875 27.5209 41.6496 27.4793C41.4828 27.9066 41.0138 27.9796 40.6593 28.1985V28.407H40.8053C40.8053 28.407 40.8261 28.4799 40.8261 28.5216C41.3578 28.5008 41.7539 28.2715 42.3689 28.3653C42.494 28.6571 42.64 28.1881 42.8067 28.4382C42.8693 28.3236 42.9735 28.3653 43.0361 28.2298C43.4739 28.0734 43.9221 28.0526 44.3808 27.9587C44.7352 27.8649 44.902 27.6669 45.246 27.5522C45.3086 27.4167 45.4128 27.2603 45.4754 27.0727C45.4754 26.9998 45.4754 26.9372 45.5588 26.9372C45.5588 26.687 45.3503 26.5307 45.3294 26.2805L45.319 26.2701Z" fill="white"/>
<path d="M61.3103 26.5724C61.1644 26.5515 61.2061 26.7287 61.2061 26.8017C61.0601 26.9789 60.9559 27.3438 60.6536 27.3229C60.5702 27.3438 60.5077 27.3021 60.466 27.3854V27.4584H59.8509C59.8926 27.1874 59.6216 27.4167 59.5382 27.2499H59.4131C59.4131 27.1874 59.3506 27.1874 59.2672 27.1874H59.1629C59.2046 27.0102 58.9753 27.031 58.9336 26.9581C58.6417 26.6141 58.3185 26.2805 58.0475 25.9365H57.7765C57.7765 25.9365 57.7765 25.874 57.7556 25.8219C57.7139 25.8219 57.6514 25.8219 57.6097 25.8636V25.9261C57.3387 25.9678 57.1302 26.0825 56.9738 26.218C56.536 26.3326 56.0252 26.4265 55.8792 26.9372C55.5248 27.0727 55.8792 27.5001 55.6916 27.8024H55.6708C55.5874 27.8962 55.6291 28.0943 55.6291 28.2298C55.5665 28.1881 55.5248 28.2715 55.5248 28.2923V28.4487C55.4623 28.4487 55.4206 28.5112 55.4414 28.5633C55.5874 28.876 55.4831 29.3764 55.504 29.7829C55.4414 29.7829 55.3997 29.8455 55.4414 29.8767C55.358 30.1061 55.1912 30.2207 55.2538 30.5126C55.4623 30.6272 55.4206 30.8566 55.4206 31.0755C55.1495 30.9817 55.2955 31.2839 55.1912 31.3673C55.2538 31.7322 55.6916 31.7739 55.6916 32.1804C55.8167 32.1804 55.9209 32.2951 55.9209 32.4306L56.7445 32.4723C56.7445 32.5661 56.8279 32.5869 56.8904 32.5661H57.0155V32.6286C57.3282 32.7433 57.8599 32.5661 58.0475 32.785C58.256 32.785 58.256 33.0143 58.3602 33.129C58.3185 33.3583 58.4228 33.5355 58.4436 33.671L58.5896 33.598V33.7544C58.3185 33.7544 58.3394 34.2339 58.1101 34.2964V34.4528C57.8599 34.4736 57.7348 34.5466 57.6305 34.7029C56.6194 34.6821 55.504 34.6821 54.5554 34.8385C54.2218 35.0157 54.055 34.7029 53.6276 34.7968V34.7238C53.44 34.6821 53.0751 34.63 52.9083 34.7968H52.7624L52.7832 34.7238C52.4913 34.6821 52.0848 34.7029 51.918 34.4736H51.7512C51.7512 34.3381 51.5427 34.4736 51.4802 34.359L51.4385 33.4312C51.4385 33.4312 51.4802 33.4104 51.5219 33.3583C51.4593 33.129 51.7929 33.3374 51.7512 33.0664C52.0014 32.9309 52.4913 33.0456 52.6164 32.8162C52.9917 32.7537 53.3774 32.8371 53.5233 32.4306C53.7944 32.2742 53.6693 31.68 53.6276 31.3465C53.294 31.2318 53.6484 30.8461 53.5442 30.5126H53.6067L53.6901 28.949C53.7944 28.9907 53.7944 28.8865 53.7944 28.8135C53.6276 28.5216 53.7318 28.063 53.711 27.7086H53.7735C53.6067 27.0727 54.1905 27.1249 54.128 26.6037C53.9612 26.4682 53.8986 26.1554 53.5755 26.1554C53.638 25.6134 53.1585 25.6134 52.8562 25.4049C52.8562 25.3841 52.7936 25.3424 52.7519 25.3424H52.606C52.4184 25.3007 52.3767 24.9984 52.0535 25.0714C51.8867 24.8942 51.5531 24.7795 51.6574 24.3C52.1161 24.029 52.5643 23.6433 53.1689 23.5808V23.6016C53.44 23.758 53.9716 23.5078 54.0967 23.8518H54.2843C54.2635 23.9664 54.3469 23.9664 54.4094 23.9664H54.5137C54.5137 24.0811 54.6179 24.029 54.6804 24.029C54.9098 24.0707 54.9932 24.5293 55.3789 24.3417C55.3789 24.4042 55.358 24.4772 55.4414 24.4772C55.504 24.3417 55.7542 24.2479 55.7542 24.0498C56.3692 23.9769 57.078 23.9769 57.3804 23.3514C57.4429 23.2576 57.7139 23.4453 57.6514 23.1742C57.985 23.1013 58.3707 23.1951 58.7459 23.1951V23.2576L59.4652 23.3931C59.4652 23.4661 59.5278 23.487 59.6112 23.4661H59.7154V23.5808C60.049 23.6433 60.4764 23.5808 60.4555 24.029C60.664 24.102 60.8934 24.2583 60.9351 24.5085C60.9351 24.5502 60.9351 24.6231 60.9976 24.6231H61.0601C61.0601 24.7378 61.0393 24.8004 61.1018 24.8525H61.2061C61.2061 24.9671 61.1644 25.0818 61.2269 25.1443H61.3103L61.2895 26.5515L61.3103 26.5724Z" fill="white"/>
<path d="M74.3813 34.3798C74.3813 34.3798 74.2771 34.3798 74.2771 34.4215V34.5779C74.1937 34.5779 74.1311 34.5362 74.0894 34.5987V34.6925L72.7655 34.6717C72.6821 34.8489 72.5153 34.9427 72.3485 34.9218C72.2652 34.9635 72.2026 34.9218 72.1609 35.0157V35.0782H71.4208V34.9844C71.0664 34.9218 70.6181 34.9218 70.3054 34.7759C70.1177 34.6613 69.9092 34.484 69.6903 34.3902L69.7112 33.869C69.7112 33.869 69.8154 33.8274 69.8154 33.7544C69.7737 33.6397 69.8363 33.6397 69.9197 33.598C69.9614 33.598 70.0239 33.598 70.0656 33.5251C70.0656 33.4104 70.4409 33.4625 70.295 33.1811C70.6494 32.7016 71.181 32.5452 71.1393 31.7113C71.2019 31.753 71.2019 31.6905 71.2019 31.6175C71.0559 31.3673 71.181 30.9608 71.1393 30.6689C71.3895 30.6689 71.2436 30.3562 71.3895 30.2833C71.3478 30.0122 71.2853 29.7621 71.2227 29.5328C71.2853 29.5328 71.327 29.4389 71.327 29.3764V29.22C71.3895 29.2617 71.3895 29.1471 71.3895 29.0845L71.4104 28.9282H71.4312C71.5146 28.8135 71.5146 28.5842 71.4312 28.4278C71.3687 28.4278 71.4104 28.2923 71.4104 28.1985H71.4521C71.5146 28.063 71.5146 27.8337 71.4521 27.6356H71.4104C71.598 27.1353 71.4938 26.4577 71.181 26.1659C71.1185 25.8532 71.0142 25.6655 70.764 25.603C70.7432 25.5613 70.7432 25.3945 70.639 25.4466H70.5347V25.3528L68.9711 25.3111C68.9711 25.3111 68.9711 25.2694 68.9502 25.2382C68.9085 25.3737 68.7 25.259 68.5541 25.3111C68.4915 25.4883 68.5124 25.676 68.5124 25.874C68.4915 25.8323 68.4498 25.874 68.4498 25.8949C68.4081 26.1659 68.0954 26.0095 68.0537 26.3222C67.8452 26.4577 67.7827 26.6662 67.595 26.8017C67.4908 26.9164 67.2615 26.9164 67.2823 27.1457C67.2406 27.1874 67.1155 27.1457 67.1364 27.2604C66.9696 27.3229 66.9696 27.6044 66.9279 27.7816C66.7194 27.9588 66.6152 28.1881 66.636 28.5738C66.4067 28.5321 66.6152 28.8865 66.5109 28.9594L66.4901 29.095C66.4275 29.095 66.4275 29.1366 66.3858 29.1366C66.5735 29.2513 66.4692 29.5223 66.4901 29.6995C66.3858 29.908 66.2399 30.0435 66.3233 30.3145H66.2816C65.9897 30.8983 66.5526 31.1484 66.365 31.7426C66.2607 31.7217 66.3024 31.8573 66.3024 31.899V32.0553C66.1565 32.2846 66.5318 32.5556 66.4692 32.8892C66.3858 32.8475 66.3858 32.8892 66.365 32.9101C66.4275 33.3374 66.9592 33.0664 67.2302 33.1602C67.3136 33.2957 67.5221 33.3896 67.6472 33.4521V34.1713C67.5012 34.213 67.6055 34.4424 67.5638 34.557C67.1468 34.6717 66.6986 34.4632 66.3858 34.7134H65.948C65.948 34.7134 65.9897 34.5987 65.9271 34.5779C65.7395 34.8697 65.187 34.5987 64.9785 34.7863C64.8951 34.63 64.6658 34.7446 64.4677 34.7134V34.5779L63.4149 34.5153C63.4149 34.5153 63.4149 34.4215 63.394 34.4215H63.2898C63.2481 34.3068 63.2898 34.1922 63.2064 34.1296L63.1855 33.3583C63.2481 33.3583 63.2898 33.2853 63.2898 33.2228V33.1081C63.2898 33.1081 63.394 33.129 63.4357 33.0664V32.9518C63.6025 32.8162 63.9674 32.9518 64.1759 32.8371V32.7745C64.1759 32.7745 64.2384 32.9309 64.3427 32.8892C64.7805 32.368 64.155 31.5758 64.572 31.1276L64.6345 29.5432C64.6345 29.5432 64.7388 29.5015 64.6971 29.4494C64.6345 29.0011 64.5303 28.5946 64.4677 28.136H64.5094L64.5511 27.0727H64.6137C64.7179 26.8434 64.5094 26.3952 64.7596 26.3222C64.9056 26.0512 65.0932 25.7802 64.9473 25.4362C64.843 25.3215 64.9264 25.0297 64.6762 25.0297C64.6762 24.915 64.6762 24.7587 64.5303 24.7587H64.4677C64.3635 24.6023 64.1967 24.5293 64.0508 24.373H63.8006V24.2583C63.8006 24.2583 63.9048 24.3 63.9465 24.2166V24.0811H64.4469C64.4469 24.0811 64.4677 24.1958 64.5094 24.1541H64.6554C64.6137 24.2479 64.6554 24.2479 64.6762 24.2687C64.8847 24.2479 64.8222 23.8622 65.1349 24.0186V24.0603C65.4893 24.1958 65.7082 23.9665 65.9793 23.9039C66.2295 24.1332 66.292 24.5606 66.3129 24.9671L66.4171 24.8525C66.4171 24.9671 66.5005 24.9671 66.563 24.9671C66.7298 24.8525 67.0634 24.7899 67.2406 24.6544C67.2823 24.6544 67.2823 24.6127 67.2823 24.5606C67.3032 24.5606 67.3866 24.7691 67.4491 24.6023V24.5606H67.595C67.595 24.5606 67.595 24.6544 67.6159 24.6544C67.8244 24.4772 68.158 24.3834 68.2726 24.0394C68.3769 23.9769 68.5437 23.8309 68.5854 23.6746C68.8564 23.5599 69.3672 23.7684 69.534 23.4974C69.6382 23.4974 69.8259 23.5391 69.8259 23.3827H70.4826C70.6702 23.5391 71.0038 23.4765 71.1185 23.6329L72.3798 23.7267C72.3798 23.7267 72.4215 23.7892 72.4632 23.7892H72.5675C72.7343 24.1749 72.8593 24.6232 73.2242 24.7899C73.245 25.3111 73.1408 25.9678 73.3076 26.4682H73.391L73.3701 27.3959C73.2033 27.4897 73.1825 27.7399 73.2033 27.9588L73.2242 32.3472C73.4952 32.2846 73.245 32.7954 73.5578 32.6182C73.7454 33.0039 74.1937 33.0039 74.3813 33.3479H74.4855C74.5689 33.6606 74.6106 34.1609 74.4021 34.3694L74.3813 34.3798Z" fill="white"/>
<path d="M86.0054 32.2325C85.9012 32.6599 85.2862 32.6807 85.3487 33.2749C85.3279 33.2749 85.2862 33.2957 85.2653 33.2957L85.2445 33.4521C85.0151 33.3583 85.1194 33.7023 84.8483 33.6606C84.8275 33.9524 84.5148 33.869 84.4314 34.1088C83.858 34.1818 83.6495 34.6925 83.0241 34.7238C82.5862 34.7238 82.3048 34.9531 81.8461 34.9948C81.8044 34.9323 81.6793 34.901 81.5751 34.901C81.5751 34.8385 81.5125 34.8072 81.45 34.8072C81.4083 34.828 81.3249 34.8072 81.3249 34.828V34.8906H81.179C81.1581 34.7134 80.9496 34.828 80.8245 34.7759C80.8245 34.6404 80.616 34.7551 80.5327 34.7134V34.6717C80.3867 34.5987 80.2199 34.6508 80.1365 34.5987C80.1365 34.557 80.074 34.5362 79.9906 34.5362C79.5945 34.4215 79.3964 33.9941 79.042 33.8065C78.896 33.7335 79.0003 33.3791 78.8126 33.3583C78.7084 32.9101 78.3957 32.8162 78.0517 32.6078C78.01 32.4514 77.8432 32.4306 77.7598 32.3159C77.593 32.2429 77.6972 31.9094 77.4887 31.9094C77.593 31.2944 77.0926 31.2944 77.1135 30.7523C77.0092 30.325 77.176 29.6474 76.9884 29.2617C76.8841 29.1888 77.0301 28.8969 76.8633 28.8552C76.9258 28.7822 76.9675 28.605 76.9258 28.4695C76.9884 28.4904 77.0301 28.4278 77.0301 28.3966C76.9884 28.2402 77.0718 28.2402 77.1343 28.2194L77.1969 27.6044C77.3428 27.5418 77.2386 27.1978 77.447 27.177V26.8121H77.4679L77.5513 26.0616C77.6138 26.0616 77.7181 26.0616 77.7181 25.947C77.6764 25.7698 78.01 25.8115 78.01 25.6343C78.3227 25.4987 78.4895 25.186 78.5103 24.7691C78.552 24.6336 78.8439 24.7482 78.7605 24.4564C78.9482 24.4981 78.7188 24.1645 78.9482 24.2062C79.0315 24.0707 79.1775 24.0707 79.1149 23.8935C79.5111 23.758 79.8968 23.5287 80.3554 23.487V23.3723C80.5014 23.3723 80.6682 23.487 80.689 23.3098C80.7307 23.4244 80.8558 23.3723 80.9601 23.3723V23.487C81.1477 23.5495 81.4604 23.5495 81.6585 23.487H81.6376V23.3723H81.6585C81.721 23.6433 82.1797 23.414 82.2735 23.758L82.3569 23.6433C82.3986 23.8205 82.5862 23.7059 82.6905 23.758C82.753 23.6225 82.9824 23.7163 83.1283 23.6433C83.2534 23.7997 83.5244 23.7997 83.5244 24.0498C83.587 24.3417 83.9206 24.1645 83.8997 24.4564C84.0665 24.4147 84.1082 24.6336 84.275 24.5919C84.4418 24.7482 84.5043 25.0193 84.7337 25.0193C84.8588 25.1965 84.8171 25.4466 85.0464 25.5404C85.0881 25.7906 85.1089 25.9261 85.2757 25.9887C85.4842 26.218 85.7344 26.2805 85.6719 26.6871C85.6927 27.2499 85.7344 27.8441 85.9637 28.2715C86.0263 28.5842 85.8178 28.6989 85.7761 28.949C85.3383 29.6266 84.2124 29.22 83.5661 29.564C83.5453 29.4285 83.3368 29.5223 83.2534 29.4494C83.0032 29.564 82.8364 29.6787 82.5341 29.6578C82.409 29.637 82.2422 29.6578 82.0755 29.637C82.1172 29.5432 82.0338 29.5432 81.9712 29.5432C81.7419 29.7204 81.5125 29.6161 81.2102 29.6161C81.0434 29.1888 80.345 29.4389 79.9697 29.3868C79.9697 29.564 79.8446 29.637 79.6779 29.637C79.5319 29.6578 79.386 29.637 79.24 29.71V29.7725C79.0524 29.7308 78.969 29.8455 78.8856 29.981V30.0748C78.8856 30.0748 78.7814 30.0748 78.7814 30.1373C79.0107 30.3145 78.7605 30.9504 79.1358 31.0442C79.1358 31.6801 79.6153 31.8364 79.7925 32.3368C79.5632 32.4514 79.8968 32.514 79.8134 32.6495L81.1581 32.6286V32.5556C81.7315 32.2117 81.5751 32.8475 82.1276 32.8267C82.1276 32.8475 82.0859 32.9205 82.1484 32.9622C82.2944 32.7537 82.6488 32.8684 82.7635 32.5348C83.1596 32.4618 83.3368 32.0136 83.7746 31.9511C83.8997 31.6592 84.2333 31.7009 84.348 31.3361C84.5564 31.2631 84.5564 31.065 84.6607 30.8878C84.7858 31.065 85.0568 30.9608 85.2549 30.9608C85.2549 31.0234 85.2966 31.0755 85.3591 31.0755H85.4425C85.5885 31.1484 85.6927 31.2527 85.8178 31.3673H85.9429C85.9846 31.6175 86.1305 31.7739 86.068 32.0866C86.0054 32.0866 86.0054 32.1595 86.0054 32.2221V32.2325ZM83.7329 26.6141C83.7329 26.6141 83.6287 26.6349 83.6287 26.5724C83.7955 26.1867 83.3577 26.1659 83.2743 25.9887C83.17 25.9887 82.9615 26.1033 82.9407 25.9261C82.6696 25.8532 82.5029 25.6343 82.4403 25.3424H82.3152L82.2735 25.2694H82.1484C82.1484 25.2694 82.0233 25.2694 82.0442 25.1548C81.794 25.2173 81.3458 25.0818 81.2415 25.2903C80.6682 25.2173 80.3763 25.5404 79.9385 25.676C79.8134 25.7385 79.7091 25.8115 79.7508 25.9887C79.6466 26.1033 79.6049 26.2805 79.4381 26.218C79.313 26.489 79.1462 26.7392 79.042 26.9893C79.1045 27.1666 79.1671 27.3333 79.3339 27.3542C79.3964 27.3542 79.4381 27.448 79.4381 27.4688L80.3033 27.5105C80.4284 27.5731 80.491 27.5731 80.5952 27.6877H80.6994C80.762 27.6877 80.8245 27.7294 80.8245 27.8024C81.0956 27.9171 81.0539 27.5522 81.2624 27.5314C81.4291 27.4167 81.6793 27.3542 82.0025 27.3959C82.1276 27.6044 82.5237 27.5314 82.826 27.6252V27.646L83.2013 27.6252C83.4932 27.6252 83.5557 27.375 83.8372 27.2604C83.8997 27.0519 83.8372 26.76 83.7538 26.6245L83.7329 26.6141Z" fill="white"/>
<path d="M99.2019 26.5724C99.056 26.5515 99.0977 26.7287 99.0977 26.8017C98.9517 26.9789 98.8475 27.3438 98.5452 27.3229C98.4618 27.3438 98.3993 27.3021 98.3576 27.3854V27.4584H97.7425C97.7842 27.1874 97.5132 27.4167 97.4298 27.2499H97.3047C97.3047 27.1874 97.2422 27.1874 97.1588 27.1874H97.0545C97.0962 27.0102 96.8669 27.031 96.8252 26.9581C96.5333 26.6141 96.2101 26.2805 95.9391 25.9365H95.6681C95.6681 25.9365 95.6681 25.874 95.6472 25.8219C95.6055 25.8219 95.543 25.8219 95.5013 25.8636V25.9261C95.2303 25.9678 95.0218 26.0825 94.8654 26.218C94.4276 26.3326 93.9168 26.4265 93.7708 26.9372C93.4164 27.0727 93.7708 27.5001 93.5832 27.8024H93.5624C93.479 27.8962 93.5207 28.0943 93.5207 28.2298C93.4581 28.1881 93.4164 28.2715 93.4164 28.2923V28.4487C93.3539 28.4487 93.3122 28.5112 93.333 28.5633C93.479 28.876 93.3747 29.3764 93.3956 29.7829C93.333 29.7829 93.2913 29.8455 93.333 29.8767C93.2496 30.1061 93.0828 30.2207 93.1454 30.5126C93.3539 30.6272 93.3122 30.8566 93.3122 31.0755C93.0411 30.9817 93.1871 31.2839 93.0828 31.3673C93.1454 31.7322 93.5832 31.7739 93.5832 32.1804C93.7083 32.1804 93.8125 32.2951 93.8125 32.4306L94.6361 32.4723C94.6361 32.5661 94.7195 32.5869 94.782 32.5661H94.9071V32.6286C95.2198 32.7433 95.7515 32.5661 95.9391 32.785C96.1476 32.785 96.1476 33.0143 96.2518 33.129C96.2102 33.3583 96.3144 33.5355 96.3352 33.671L96.4812 33.598V33.7544C96.2102 33.7544 96.231 34.2339 96.0017 34.2964V34.4528C95.7515 34.4736 95.6264 34.5466 95.5221 34.7029C94.511 34.6821 93.3956 34.6821 92.447 34.8385C92.1134 35.0157 91.9466 34.7029 91.5192 34.7968V34.7238C91.3316 34.6821 90.9667 34.63 90.7999 34.7968H90.654L90.6748 34.7238C90.3829 34.6821 89.9764 34.7029 89.8096 34.4736H89.6428C89.6428 34.3381 89.4343 34.4736 89.3718 34.359L89.3301 33.4312C89.3301 33.4312 89.3718 33.4104 89.4135 33.3583C89.3509 33.129 89.6845 33.3374 89.6428 33.0664C89.893 32.9309 90.3829 33.0456 90.508 32.8162C90.8833 32.7537 91.269 32.8371 91.415 32.4306C91.686 32.2742 91.5609 31.68 91.5192 31.3465C91.1856 31.2318 91.54 30.8461 91.4358 30.5126H91.4983L91.5817 28.949C91.686 28.9907 91.686 28.8865 91.686 28.8135C91.5192 28.5216 91.6234 28.063 91.6026 27.7086H91.6651C91.4983 27.0727 92.0821 27.1249 92.0196 26.6037C91.8528 26.4682 91.7902 26.1554 91.4671 26.1554C91.5296 25.6134 91.0501 25.6134 90.7478 25.4049C90.7478 25.3841 90.6852 25.3424 90.6435 25.3424H90.4976C90.31 25.3007 90.2683 24.9984 89.9451 25.0714C89.7783 24.8942 89.4447 24.7795 89.549 24.3C90.0077 24.029 90.4559 23.6433 91.0605 23.5808V23.6016C91.3316 23.758 91.8632 23.5078 91.9883 23.8518H92.1759C92.1551 23.9664 92.2385 23.9664 92.301 23.9664H92.4053C92.4053 24.0811 92.5095 24.029 92.5721 24.029C92.8014 24.0707 92.8848 24.5293 93.2705 24.3417C93.2705 24.4042 93.2496 24.4772 93.333 24.4772C93.3956 24.3417 93.6458 24.2479 93.6458 24.0498C94.2608 23.9769 94.9697 23.9769 95.272 23.3514C95.3345 23.2576 95.6055 23.4453 95.543 23.1742C95.8766 23.1013 96.2623 23.1951 96.6375 23.1951V23.2576L97.3568 23.3931C97.3568 23.4661 97.4194 23.487 97.5028 23.4661H97.607V23.5808C97.9406 23.6433 98.368 23.5808 98.3471 24.029C98.5556 24.102 98.785 24.2583 98.8267 24.5085C98.8267 24.5502 98.8267 24.6231 98.8892 24.6231H98.9517C98.9517 24.7378 98.9309 24.8004 98.9934 24.8525H99.0977C99.0977 24.9671 99.056 25.0818 99.1185 25.1443H99.2019L99.1811 26.5515L99.2019 26.5724Z" fill="white"/>
<path d="M110.263 19.6301C116.977 14.0847 124.576 10.478 130.445 10.478C135.428 10.478 139.295 12.3022 141.943 15.617L141.568 15.9088C138.962 13.1361 135.126 12.667 132.175 12.667C125.462 12.667 117.967 15.544 111.452 20.2138C113.047 21.1624 114.027 22.6217 114.027 24.4459C114.027 28.0942 110.399 30.721 106.938 30.721C106.459 30.721 105.99 30.6897 105.51 30.5751L105.614 30.179C106.021 30.2519 106.427 30.2936 106.865 30.2936C110.055 30.2936 113.068 27.9587 113.068 24.8628C113.068 23.0074 112.182 21.5794 110.826 20.6725C106.01 24.2478 101.841 28.803 98.9948 33.869C101.163 35.5055 104.217 35.8704 106.323 35.8704C111.275 35.8704 115.549 32.5556 118.363 27.9587C122.335 21.4647 125.316 15.2 132.947 13.5635L133.051 14.0742C126.129 15.4606 124.805 23.7684 120.469 29.6786C117.456 33.796 111.723 36.4541 106.292 36.4541C104.019 36.4541 100.934 36.0163 98.6299 34.557C96.4617 38.6431 95.169 43.0836 95.169 47.6388C95.169 54.2788 99.0365 60.2516 107.855 60.2516C115.893 60.2516 125.118 53.4344 125.118 43.9592C125.118 40.7174 123.492 37.6945 119.114 37.6945C116.914 37.6945 114.6 38.6014 112.234 40.1024L111.994 39.6646C114.162 38.2783 116.643 37.1525 119.114 37.1525C123.826 37.1525 126.473 40.0295 126.473 43.8654C126.473 53.6012 116.164 60.7832 107.824 60.7832C98.4944 60.7832 94.5957 54.5811 94.5957 47.5867C94.5957 43.0315 95.9509 38.5076 98.1608 34.2755C96.4617 33.0351 95.2733 31.1797 95.2733 28.4382C95.2733 23.2263 100.934 18.963 106.334 18.963C107.762 18.963 109.117 19.2132 110.263 19.651V19.6301ZM109.753 20.0679C108.731 19.6301 107.543 19.4112 106.323 19.4112C101.069 19.4112 96.42 23.5286 96.42 28.0525C96.42 30.6064 97.2643 32.3159 98.557 33.4833C101.34 28.4486 105.302 23.8205 109.753 20.0679Z" fill="white"/>
<path d="M138.784 28.949L139.139 29.2096C137.471 31.3465 134.687 34.7238 131.623 34.7238C130.434 34.7238 129.913 34.1713 129.913 33.3583C129.913 32.9726 130.028 32.5035 130.309 31.9927V31.9511C128.923 33.6189 127.484 34.7238 125.577 34.7238C123.669 34.7238 123.346 33.525 123.346 32.712C123.346 29.5953 127.046 25.7489 130.945 25.7489C132.175 25.7489 132.936 26.3014 133.291 26.8642L133.374 26.7392C133.697 26.2701 133.926 26.0095 134.562 26.0095H136.314C136.553 26.0095 136.626 26.1346 136.626 26.2701C136.626 26.3118 136.626 26.3952 136.512 26.6141C135.563 28.2402 132.811 32.17 132.811 33.2332C132.811 33.5772 132.967 33.7439 133.249 33.7439C134.166 33.7439 136.189 32.295 138.774 28.9594L138.784 28.949ZM126.254 33.0977C126.254 33.4833 126.494 33.7856 126.89 33.7856C128.881 33.7856 132.373 28.876 132.373 27.2082C132.373 26.4369 131.852 26.3118 131.414 26.3118C129.35 26.3118 126.244 31.0546 126.244 33.1081L126.254 33.0977Z" fill="white"/>
<path d="M140.807 32.5452C140.807 33.6605 141.526 33.7439 141.797 33.7439C142.746 33.7439 144.82 32.1595 147.364 28.9594L147.718 29.22C146.05 31.3569 143.183 34.7342 140.16 34.7342C138.096 34.7342 137.731 33.4521 137.731 32.5556C137.731 28.407 147.916 9.21677 157.579 9.21677C159.841 9.21677 160.884 9.98813 160.884 11.1452C160.884 11.5308 160.801 11.9999 160.602 12.469H160.123C159.883 10.5927 158.809 9.77965 157.1 9.77965C152.649 9.77965 146.561 19.4842 143.142 26.145C141.349 29.6474 140.796 31.5341 140.796 32.5556L140.807 32.5452Z" fill="white"/>
<path d="M156.631 28.9491L156.985 29.2097C155.317 31.3465 152.294 34.7238 148.395 34.7238C146.404 34.7238 145.769 33.744 145.769 32.7537C145.769 29.5015 149.313 25.749 152.972 25.749C155.234 25.749 155.599 26.7705 155.599 27.4168C155.599 29.8976 152.096 31.3882 149.042 31.3882C148.885 31.7322 148.687 32.5036 148.687 32.9309C148.687 33.5668 148.844 33.9525 149.605 33.9525C151.356 33.9525 154.056 32.2847 156.641 28.9491H156.631ZM153.368 26.8122C153.368 26.5516 153.253 26.3848 152.93 26.3848C152.054 26.3848 150.303 28.3966 149.188 30.9192C151.69 30.6586 153.357 28.1464 153.357 26.8122H153.368Z" fill="white"/>
<path d="M160.09 32.2012C157.109 32.2012 154.523 33.7856 154.523 35.3596C154.523 36.131 155.274 36.3394 156.118 36.3394C158.62 36.3394 163.676 34.1609 163.676 31.5549C163.676 29.8037 160.736 29.1158 160.736 27.917C160.736 27.104 161.768 26.0824 162.488 26.0824C162.884 26.0824 163.04 26.343 163.04 26.7704C163.04 27.1561 162.842 27.8336 162.717 28.1359L163.04 28.4382C164.114 28.1776 164.989 27.1978 164.989 26.4681C164.989 25.9573 164.593 25.6134 163.634 25.5717C160.966 25.4049 158.589 26.8121 158.589 28.7822C158.589 30.4083 160.851 30.794 160.851 32.2429C160.57 32.2429 160.33 32.2012 160.1 32.2012H160.09ZM156.389 35.8808C155.712 35.8808 155.43 35.6202 155.43 35.1928C155.43 33.6084 157.901 32.6286 160.08 32.6286C160.319 32.6286 160.559 32.6703 160.799 32.6703C160.444 34.4632 158.172 35.8808 156.389 35.8808Z" fill="white"/>
</svg>
