<svg width="142" height="148" viewBox="0 0 142 148" fill="none" xmlns="http://www.w3.org/2000/svg">
<path d="M55.1995 85.6137C54.8281 85.8543 54.5125 86.1729 54.2754 86.5468C54.0384 86.1764 53.7242 85.8606 53.3549 85.622C53.7262 85.383 54.0438 85.0687 54.2835 84.6966C54.521 85.0627 54.8319 85.3763 55.1995 85.6137Z" fill="#1F1244" stroke="#1F1244"/>
<path d="M16.4202 134.602C15.1047 135.18 14.0369 136.218 13.4379 137.531L13.3218 137.531C12.7253 136.22 11.6665 135.173 10.34 134.6C11.7005 134.006 12.7915 132.925 13.3804 131.561C13.9748 132.922 15.0556 134.013 16.4202 134.602Z" fill="#1F1244" stroke="#1F1244"/>
<path d="M20.4087 6.4917C20.041 6.72929 19.7261 7.04074 19.4878 7.40925C19.2502 7.04155 18.9387 6.72663 18.5702 6.4883C18.9379 6.25071 19.2529 5.93926 19.4912 5.57075C19.7288 5.93845 20.0402 6.25337 20.4087 6.4917Z" fill="#1F1244" stroke="#1F1244"/>
<path d="M136.198 121.623C135.83 121.86 135.515 122.172 135.277 122.54C135.039 122.172 134.728 121.857 134.359 121.619C134.727 121.382 135.042 121.07 135.28 120.702C135.518 121.069 135.829 121.384 136.198 121.623Z" fill="#1F1244" stroke="#1F1244"/>
</svg>
